<mxfile host="app.diagrams.net" agent="Mozilla/5.0 (Windows NT 10.0; Win64; x64) AppleWebKit/537.36 (KHTML, like Gecko) Chrome/127.0.0.0 Safari/537.36 OPR/113.0.0.0" version="24.7.14" pages="5">
  <diagram name="CasoDeUso" id="qGpuWfKafBmhfKnx1YXl">
    <mxGraphModel grid="1" page="1" gridSize="10" guides="1" tooltips="1" connect="1" arrows="1" fold="1" pageScale="1" pageWidth="827" pageHeight="1169" math="0" shadow="0">
      <root>
        <mxCell id="0" />
        <mxCell id="1" parent="0" />
        <mxCell id="LK4eTAi2nCAdNln69j6n-1" value="Atleta&lt;div&gt;&lt;br&gt;&lt;/div&gt;" style="shape=umlActor;verticalLabelPosition=bottom;verticalAlign=top;html=1;outlineConnect=0;" vertex="1" parent="1">
          <mxGeometry x="30" y="50" width="30" height="60" as="geometry" />
        </mxCell>
        <mxCell id="LK4eTAi2nCAdNln69j6n-2" value="Organizador&lt;div&gt;&lt;br&gt;&lt;/div&gt;" style="shape=umlActor;verticalLabelPosition=bottom;verticalAlign=top;html=1;outlineConnect=0;" vertex="1" parent="1">
          <mxGeometry x="30" y="210" width="30" height="60" as="geometry" />
        </mxCell>
        <mxCell id="LK4eTAi2nCAdNln69j6n-4" value="Increver Atleta" style="ellipse;whiteSpace=wrap;html=1;" vertex="1" parent="1">
          <mxGeometry x="160" y="30" width="120" height="80" as="geometry" />
        </mxCell>
        <mxCell id="LK4eTAi2nCAdNln69j6n-6" value="Cadastrar Competição" style="ellipse;whiteSpace=wrap;html=1;" vertex="1" parent="1">
          <mxGeometry x="160" y="150" width="120" height="80" as="geometry" />
        </mxCell>
        <mxCell id="LK4eTAi2nCAdNln69j6n-7" value="Alocar Local" style="ellipse;whiteSpace=wrap;html=1;" vertex="1" parent="1">
          <mxGeometry x="160" y="350" width="120" height="80" as="geometry" />
        </mxCell>
        <mxCell id="LK4eTAi2nCAdNln69j6n-8" value="Gerar Relatório de Medalhas" style="ellipse;whiteSpace=wrap;html=1;" vertex="1" parent="1">
          <mxGeometry x="330" y="250" width="120" height="80" as="geometry" />
        </mxCell>
        <mxCell id="LK4eTAi2nCAdNln69j6n-18" style="edgeStyle=orthogonalEdgeStyle;rounded=0;orthogonalLoop=1;jettySize=auto;html=1;entryX=0;entryY=0.5;entryDx=0;entryDy=0;" edge="1" parent="1" source="LK4eTAi2nCAdNln69j6n-9" target="LK4eTAi2nCAdNln69j6n-8">
          <mxGeometry relative="1" as="geometry" />
        </mxCell>
        <mxCell id="LK4eTAi2nCAdNln69j6n-9" value="Registrar Resultados" style="ellipse;whiteSpace=wrap;html=1;" vertex="1" parent="1">
          <mxGeometry x="160" y="250" width="120" height="80" as="geometry" />
        </mxCell>
        <mxCell id="LK4eTAi2nCAdNln69j6n-12" value="" style="endArrow=none;html=1;rounded=0;exitX=1;exitY=0.3333333333333333;exitDx=0;exitDy=0;exitPerimeter=0;entryX=0;entryY=0.5;entryDx=0;entryDy=0;" edge="1" parent="1" source="LK4eTAi2nCAdNln69j6n-1" target="LK4eTAi2nCAdNln69j6n-4">
          <mxGeometry width="50" height="50" relative="1" as="geometry">
            <mxPoint x="390" y="230" as="sourcePoint" />
            <mxPoint x="440" y="180" as="targetPoint" />
          </mxGeometry>
        </mxCell>
        <mxCell id="LK4eTAi2nCAdNln69j6n-13" value="" style="endArrow=none;html=1;rounded=0;exitX=1;exitY=0.3333333333333333;exitDx=0;exitDy=0;exitPerimeter=0;" edge="1" parent="1" source="LK4eTAi2nCAdNln69j6n-2" target="LK4eTAi2nCAdNln69j6n-4">
          <mxGeometry width="50" height="50" relative="1" as="geometry">
            <mxPoint x="390" y="230" as="sourcePoint" />
            <mxPoint x="440" y="180" as="targetPoint" />
          </mxGeometry>
        </mxCell>
        <mxCell id="LK4eTAi2nCAdNln69j6n-14" value="" style="endArrow=none;html=1;rounded=0;exitX=1;exitY=0.3333333333333333;exitDx=0;exitDy=0;exitPerimeter=0;entryX=0;entryY=0.375;entryDx=0;entryDy=0;entryPerimeter=0;" edge="1" parent="1" source="LK4eTAi2nCAdNln69j6n-2" target="LK4eTAi2nCAdNln69j6n-7">
          <mxGeometry width="50" height="50" relative="1" as="geometry">
            <mxPoint x="390" y="230" as="sourcePoint" />
            <mxPoint x="440" y="180" as="targetPoint" />
          </mxGeometry>
        </mxCell>
        <mxCell id="LK4eTAi2nCAdNln69j6n-15" value="" style="endArrow=none;html=1;rounded=0;exitX=1;exitY=0.3333333333333333;exitDx=0;exitDy=0;exitPerimeter=0;entryX=0;entryY=0.388;entryDx=0;entryDy=0;entryPerimeter=0;" edge="1" parent="1" source="LK4eTAi2nCAdNln69j6n-2" target="LK4eTAi2nCAdNln69j6n-9">
          <mxGeometry width="50" height="50" relative="1" as="geometry">
            <mxPoint x="390" y="230" as="sourcePoint" />
            <mxPoint x="440" y="180" as="targetPoint" />
          </mxGeometry>
        </mxCell>
        <mxCell id="LK4eTAi2nCAdNln69j6n-16" value="" style="endArrow=none;html=1;rounded=0;entryX=0;entryY=0.5;entryDx=0;entryDy=0;exitX=1;exitY=0.3333333333333333;exitDx=0;exitDy=0;exitPerimeter=0;" edge="1" parent="1" source="LK4eTAi2nCAdNln69j6n-2" target="LK4eTAi2nCAdNln69j6n-6">
          <mxGeometry width="50" height="50" relative="1" as="geometry">
            <mxPoint x="60" y="290" as="sourcePoint" />
            <mxPoint x="440" y="180" as="targetPoint" />
          </mxGeometry>
        </mxCell>
        <mxCell id="_9iUJ7SE-pgpOn1VVADP-1" value="Sistemas de Medalhas" style="shape=umlActor;verticalLabelPosition=bottom;verticalAlign=top;html=1;outlineConnect=0;" vertex="1" parent="1">
          <mxGeometry x="480" y="150" width="30" height="60" as="geometry" />
        </mxCell>
        <mxCell id="_9iUJ7SE-pgpOn1VVADP-2" value="" style="endArrow=none;html=1;rounded=0;exitX=0.5;exitY=0;exitDx=0;exitDy=0;entryX=0;entryY=0.3333333333333333;entryDx=0;entryDy=0;entryPerimeter=0;" edge="1" parent="1" source="LK4eTAi2nCAdNln69j6n-8" target="_9iUJ7SE-pgpOn1VVADP-1">
          <mxGeometry width="50" height="50" relative="1" as="geometry">
            <mxPoint x="390" y="330" as="sourcePoint" />
            <mxPoint x="470" y="230" as="targetPoint" />
          </mxGeometry>
        </mxCell>
      </root>
    </mxGraphModel>
  </diagram>
  <diagram id="0Mpjd5d8UOXLvQaMRW5m" name="Classe">
    <mxGraphModel grid="1" page="1" gridSize="10" guides="1" tooltips="1" connect="1" arrows="1" fold="1" pageScale="1" pageWidth="827" pageHeight="1169" math="0" shadow="0">
      <root>
        <mxCell id="0" />
        <mxCell id="1" parent="0" />
        <mxCell id="wIxdVw_gFfNHMZUSt5Jz-46" style="edgeStyle=orthogonalEdgeStyle;rounded=0;orthogonalLoop=1;jettySize=auto;html=1;" edge="1" parent="1" source="ZuKtEwapp2vnL3nuEhrI-11" target="wIxdVw_gFfNHMZUSt5Jz-2">
          <mxGeometry relative="1" as="geometry" />
        </mxCell>
        <mxCell id="wIxdVw_gFfNHMZUSt5Jz-47" value="1" style="edgeLabel;html=1;align=center;verticalAlign=middle;resizable=0;points=[];" connectable="0" vertex="1" parent="wIxdVw_gFfNHMZUSt5Jz-46">
          <mxGeometry x="-0.5867" y="3" relative="1" as="geometry">
            <mxPoint as="offset" />
          </mxGeometry>
        </mxCell>
        <mxCell id="wIxdVw_gFfNHMZUSt5Jz-48" value="1" style="edgeLabel;html=1;align=center;verticalAlign=middle;resizable=0;points=[];" connectable="0" vertex="1" parent="wIxdVw_gFfNHMZUSt5Jz-46">
          <mxGeometry x="0.6098" y="1" relative="1" as="geometry">
            <mxPoint as="offset" />
          </mxGeometry>
        </mxCell>
        <mxCell id="ZuKtEwapp2vnL3nuEhrI-11" value="Competicao" style="swimlane;fontStyle=1;align=center;verticalAlign=top;childLayout=stackLayout;horizontal=1;startSize=26;horizontalStack=0;resizeParent=1;resizeParentMax=0;resizeLast=0;collapsible=1;marginBottom=0;whiteSpace=wrap;html=1;" vertex="1" parent="1">
          <mxGeometry x="319" y="20" width="190" height="216" as="geometry" />
        </mxCell>
        <mxCell id="ZuKtEwapp2vnL3nuEhrI-6" value="+ nomeModalidade: String" style="text;strokeColor=none;fillColor=none;align=left;verticalAlign=top;spacingLeft=4;spacingRight=4;overflow=hidden;rotatable=0;points=[[0,0.5],[1,0.5]];portConstraint=eastwest;whiteSpace=wrap;html=1;" vertex="1" parent="ZuKtEwapp2vnL3nuEhrI-11">
          <mxGeometry y="26" width="190" height="26" as="geometry" />
        </mxCell>
        <mxCell id="ZuKtEwapp2vnL3nuEhrI-7" value="+ data: Date" style="text;strokeColor=none;fillColor=none;align=left;verticalAlign=top;spacingLeft=4;spacingRight=4;overflow=hidden;rotatable=0;points=[[0,0.5],[1,0.5]];portConstraint=eastwest;whiteSpace=wrap;html=1;" vertex="1" parent="ZuKtEwapp2vnL3nuEhrI-11">
          <mxGeometry y="52" width="190" height="26" as="geometry" />
        </mxCell>
        <mxCell id="ZuKtEwapp2vnL3nuEhrI-9" value="+ horario: Time" style="text;strokeColor=none;fillColor=none;align=left;verticalAlign=top;spacingLeft=4;spacingRight=4;overflow=hidden;rotatable=0;points=[[0,0.5],[1,0.5]];portConstraint=eastwest;whiteSpace=wrap;html=1;" vertex="1" parent="ZuKtEwapp2vnL3nuEhrI-11">
          <mxGeometry y="78" width="190" height="26" as="geometry" />
        </mxCell>
        <mxCell id="ZuKtEwapp2vnL3nuEhrI-8" value="+ local: String" style="text;strokeColor=none;fillColor=none;align=left;verticalAlign=top;spacingLeft=4;spacingRight=4;overflow=hidden;rotatable=0;points=[[0,0.5],[1,0.5]];portConstraint=eastwest;whiteSpace=wrap;html=1;" vertex="1" parent="ZuKtEwapp2vnL3nuEhrI-11">
          <mxGeometry y="104" width="190" height="26" as="geometry" />
        </mxCell>
        <mxCell id="wIxdVw_gFfNHMZUSt5Jz-1" value="+ atletasInscritos: int" style="text;strokeColor=none;fillColor=none;align=left;verticalAlign=top;spacingLeft=4;spacingRight=4;overflow=hidden;rotatable=0;points=[[0,0.5],[1,0.5]];portConstraint=eastwest;whiteSpace=wrap;html=1;" vertex="1" parent="ZuKtEwapp2vnL3nuEhrI-11">
          <mxGeometry y="130" width="190" height="26" as="geometry" />
        </mxCell>
        <mxCell id="ZuKtEwapp2vnL3nuEhrI-13" value="" style="line;strokeWidth=1;fillColor=none;align=left;verticalAlign=middle;spacingTop=-1;spacingLeft=3;spacingRight=3;rotatable=0;labelPosition=right;points=[];portConstraint=eastwest;strokeColor=inherit;" vertex="1" parent="ZuKtEwapp2vnL3nuEhrI-11">
          <mxGeometry y="156" width="190" height="8" as="geometry" />
        </mxCell>
        <mxCell id="ZuKtEwapp2vnL3nuEhrI-14" value="+ cadastrarCompeticao(): Void" style="text;strokeColor=none;fillColor=none;align=left;verticalAlign=top;spacingLeft=4;spacingRight=4;overflow=hidden;rotatable=0;points=[[0,0.5],[1,0.5]];portConstraint=eastwest;whiteSpace=wrap;html=1;" vertex="1" parent="ZuKtEwapp2vnL3nuEhrI-11">
          <mxGeometry y="164" width="190" height="26" as="geometry" />
        </mxCell>
        <mxCell id="wIxdVw_gFfNHMZUSt5Jz-10" value="+ alocarLocal(): Void" style="text;strokeColor=none;fillColor=none;align=left;verticalAlign=top;spacingLeft=4;spacingRight=4;overflow=hidden;rotatable=0;points=[[0,0.5],[1,0.5]];portConstraint=eastwest;whiteSpace=wrap;html=1;" vertex="1" parent="ZuKtEwapp2vnL3nuEhrI-11">
          <mxGeometry y="190" width="190" height="26" as="geometry" />
        </mxCell>
        <mxCell id="wIxdVw_gFfNHMZUSt5Jz-2" value="Resultado" style="swimlane;fontStyle=1;align=center;verticalAlign=top;childLayout=stackLayout;horizontal=1;startSize=26;horizontalStack=0;resizeParent=1;resizeParentMax=0;resizeLast=0;collapsible=1;marginBottom=0;whiteSpace=wrap;html=1;" vertex="1" parent="1">
          <mxGeometry x="129" y="280" width="190" height="164" as="geometry" />
        </mxCell>
        <mxCell id="wIxdVw_gFfNHMZUSt5Jz-3" value="+ competicao: String" style="text;strokeColor=none;fillColor=none;align=left;verticalAlign=top;spacingLeft=4;spacingRight=4;overflow=hidden;rotatable=0;points=[[0,0.5],[1,0.5]];portConstraint=eastwest;whiteSpace=wrap;html=1;" vertex="1" parent="wIxdVw_gFfNHMZUSt5Jz-2">
          <mxGeometry y="26" width="190" height="26" as="geometry" />
        </mxCell>
        <mxCell id="wIxdVw_gFfNHMZUSt5Jz-4" value="+ vencedor: String" style="text;strokeColor=none;fillColor=none;align=left;verticalAlign=top;spacingLeft=4;spacingRight=4;overflow=hidden;rotatable=0;points=[[0,0.5],[1,0.5]];portConstraint=eastwest;whiteSpace=wrap;html=1;" vertex="1" parent="wIxdVw_gFfNHMZUSt5Jz-2">
          <mxGeometry y="52" width="190" height="26" as="geometry" />
        </mxCell>
        <mxCell id="wIxdVw_gFfNHMZUSt5Jz-5" value="+ segundoLugar: String" style="text;strokeColor=none;fillColor=none;align=left;verticalAlign=top;spacingLeft=4;spacingRight=4;overflow=hidden;rotatable=0;points=[[0,0.5],[1,0.5]];portConstraint=eastwest;whiteSpace=wrap;html=1;" vertex="1" parent="wIxdVw_gFfNHMZUSt5Jz-2">
          <mxGeometry y="78" width="190" height="26" as="geometry" />
        </mxCell>
        <mxCell id="wIxdVw_gFfNHMZUSt5Jz-6" value="+ terceiroLugar: String" style="text;strokeColor=none;fillColor=none;align=left;verticalAlign=top;spacingLeft=4;spacingRight=4;overflow=hidden;rotatable=0;points=[[0,0.5],[1,0.5]];portConstraint=eastwest;whiteSpace=wrap;html=1;" vertex="1" parent="wIxdVw_gFfNHMZUSt5Jz-2">
          <mxGeometry y="104" width="190" height="26" as="geometry" />
        </mxCell>
        <mxCell id="wIxdVw_gFfNHMZUSt5Jz-8" value="" style="line;strokeWidth=1;fillColor=none;align=left;verticalAlign=middle;spacingTop=-1;spacingLeft=3;spacingRight=3;rotatable=0;labelPosition=right;points=[];portConstraint=eastwest;strokeColor=inherit;" vertex="1" parent="wIxdVw_gFfNHMZUSt5Jz-2">
          <mxGeometry y="130" width="190" height="8" as="geometry" />
        </mxCell>
        <mxCell id="wIxdVw_gFfNHMZUSt5Jz-9" value="+ registrarResultado(): Void" style="text;strokeColor=none;fillColor=none;align=left;verticalAlign=top;spacingLeft=4;spacingRight=4;overflow=hidden;rotatable=0;points=[[0,0.5],[1,0.5]];portConstraint=eastwest;whiteSpace=wrap;html=1;" vertex="1" parent="wIxdVw_gFfNHMZUSt5Jz-2">
          <mxGeometry y="138" width="190" height="26" as="geometry" />
        </mxCell>
        <mxCell id="wIxdVw_gFfNHMZUSt5Jz-11" value="Atleta" style="swimlane;fontStyle=1;align=center;verticalAlign=top;childLayout=stackLayout;horizontal=1;startSize=26;horizontalStack=0;resizeParent=1;resizeParentMax=0;resizeLast=0;collapsible=1;marginBottom=0;whiteSpace=wrap;html=1;" vertex="1" parent="1">
          <mxGeometry x="40" y="20" width="190" height="164" as="geometry" />
        </mxCell>
        <mxCell id="wIxdVw_gFfNHMZUSt5Jz-12" value="+ nome: String" style="text;strokeColor=none;fillColor=none;align=left;verticalAlign=top;spacingLeft=4;spacingRight=4;overflow=hidden;rotatable=0;points=[[0,0.5],[1,0.5]];portConstraint=eastwest;whiteSpace=wrap;html=1;" vertex="1" parent="wIxdVw_gFfNHMZUSt5Jz-11">
          <mxGeometry y="26" width="190" height="26" as="geometry" />
        </mxCell>
        <mxCell id="wIxdVw_gFfNHMZUSt5Jz-13" value="+ idade: int" style="text;strokeColor=none;fillColor=none;align=left;verticalAlign=top;spacingLeft=4;spacingRight=4;overflow=hidden;rotatable=0;points=[[0,0.5],[1,0.5]];portConstraint=eastwest;whiteSpace=wrap;html=1;" vertex="1" parent="wIxdVw_gFfNHMZUSt5Jz-11">
          <mxGeometry y="52" width="190" height="26" as="geometry" />
        </mxCell>
        <mxCell id="wIxdVw_gFfNHMZUSt5Jz-14" value="+ pais: String" style="text;strokeColor=none;fillColor=none;align=left;verticalAlign=top;spacingLeft=4;spacingRight=4;overflow=hidden;rotatable=0;points=[[0,0.5],[1,0.5]];portConstraint=eastwest;whiteSpace=wrap;html=1;" vertex="1" parent="wIxdVw_gFfNHMZUSt5Jz-11">
          <mxGeometry y="78" width="190" height="26" as="geometry" />
        </mxCell>
        <mxCell id="wIxdVw_gFfNHMZUSt5Jz-15" value="+ competicoes: String" style="text;strokeColor=none;fillColor=none;align=left;verticalAlign=top;spacingLeft=4;spacingRight=4;overflow=hidden;rotatable=0;points=[[0,0.5],[1,0.5]];portConstraint=eastwest;whiteSpace=wrap;html=1;" vertex="1" parent="wIxdVw_gFfNHMZUSt5Jz-11">
          <mxGeometry y="104" width="190" height="26" as="geometry" />
        </mxCell>
        <mxCell id="wIxdVw_gFfNHMZUSt5Jz-16" value="" style="line;strokeWidth=1;fillColor=none;align=left;verticalAlign=middle;spacingTop=-1;spacingLeft=3;spacingRight=3;rotatable=0;labelPosition=right;points=[];portConstraint=eastwest;strokeColor=inherit;" vertex="1" parent="wIxdVw_gFfNHMZUSt5Jz-11">
          <mxGeometry y="130" width="190" height="8" as="geometry" />
        </mxCell>
        <mxCell id="wIxdVw_gFfNHMZUSt5Jz-17" value="+ inscreverCompeticao(): Void" style="text;strokeColor=none;fillColor=none;align=left;verticalAlign=top;spacingLeft=4;spacingRight=4;overflow=hidden;rotatable=0;points=[[0,0.5],[1,0.5]];portConstraint=eastwest;whiteSpace=wrap;html=1;" vertex="1" parent="wIxdVw_gFfNHMZUSt5Jz-11">
          <mxGeometry y="138" width="190" height="26" as="geometry" />
        </mxCell>
        <mxCell id="wIxdVw_gFfNHMZUSt5Jz-18" value="Medalhas" style="swimlane;fontStyle=1;align=center;verticalAlign=top;childLayout=stackLayout;horizontal=1;startSize=26;horizontalStack=0;resizeParent=1;resizeParentMax=0;resizeLast=0;collapsible=1;marginBottom=0;whiteSpace=wrap;html=1;" vertex="1" parent="1">
          <mxGeometry x="440" y="280" width="190" height="164" as="geometry" />
        </mxCell>
        <mxCell id="wIxdVw_gFfNHMZUSt5Jz-21" value="+ pais: String" style="text;strokeColor=none;fillColor=none;align=left;verticalAlign=top;spacingLeft=4;spacingRight=4;overflow=hidden;rotatable=0;points=[[0,0.5],[1,0.5]];portConstraint=eastwest;whiteSpace=wrap;html=1;" vertex="1" parent="wIxdVw_gFfNHMZUSt5Jz-18">
          <mxGeometry y="26" width="190" height="26" as="geometry" />
        </mxCell>
        <mxCell id="wIxdVw_gFfNHMZUSt5Jz-20" value="+ ouro: String" style="text;strokeColor=none;fillColor=none;align=left;verticalAlign=top;spacingLeft=4;spacingRight=4;overflow=hidden;rotatable=0;points=[[0,0.5],[1,0.5]];portConstraint=eastwest;whiteSpace=wrap;html=1;" vertex="1" parent="wIxdVw_gFfNHMZUSt5Jz-18">
          <mxGeometry y="52" width="190" height="26" as="geometry" />
        </mxCell>
        <mxCell id="wIxdVw_gFfNHMZUSt5Jz-19" value="+ prata: String" style="text;strokeColor=none;fillColor=none;align=left;verticalAlign=top;spacingLeft=4;spacingRight=4;overflow=hidden;rotatable=0;points=[[0,0.5],[1,0.5]];portConstraint=eastwest;whiteSpace=wrap;html=1;" vertex="1" parent="wIxdVw_gFfNHMZUSt5Jz-18">
          <mxGeometry y="78" width="190" height="26" as="geometry" />
        </mxCell>
        <mxCell id="wIxdVw_gFfNHMZUSt5Jz-22" value="+ bronze: String" style="text;strokeColor=none;fillColor=none;align=left;verticalAlign=top;spacingLeft=4;spacingRight=4;overflow=hidden;rotatable=0;points=[[0,0.5],[1,0.5]];portConstraint=eastwest;whiteSpace=wrap;html=1;" vertex="1" parent="wIxdVw_gFfNHMZUSt5Jz-18">
          <mxGeometry y="104" width="190" height="26" as="geometry" />
        </mxCell>
        <mxCell id="wIxdVw_gFfNHMZUSt5Jz-23" value="" style="line;strokeWidth=1;fillColor=none;align=left;verticalAlign=middle;spacingTop=-1;spacingLeft=3;spacingRight=3;rotatable=0;labelPosition=right;points=[];portConstraint=eastwest;strokeColor=inherit;" vertex="1" parent="wIxdVw_gFfNHMZUSt5Jz-18">
          <mxGeometry y="130" width="190" height="8" as="geometry" />
        </mxCell>
        <mxCell id="wIxdVw_gFfNHMZUSt5Jz-24" value="+ gerarRelatorioMedalhas(): Void" style="text;strokeColor=none;fillColor=none;align=left;verticalAlign=top;spacingLeft=4;spacingRight=4;overflow=hidden;rotatable=0;points=[[0,0.5],[1,0.5]];portConstraint=eastwest;whiteSpace=wrap;html=1;" vertex="1" parent="wIxdVw_gFfNHMZUSt5Jz-18">
          <mxGeometry y="138" width="190" height="26" as="geometry" />
        </mxCell>
        <mxCell id="wIxdVw_gFfNHMZUSt5Jz-25" value="Local" style="swimlane;fontStyle=1;align=center;verticalAlign=top;childLayout=stackLayout;horizontal=1;startSize=26;horizontalStack=0;resizeParent=1;resizeParentMax=0;resizeLast=0;collapsible=1;marginBottom=0;whiteSpace=wrap;html=1;" vertex="1" parent="1">
          <mxGeometry x="610" y="20" width="190" height="138" as="geometry" />
        </mxCell>
        <mxCell id="wIxdVw_gFfNHMZUSt5Jz-26" value="+ nome: String" style="text;strokeColor=none;fillColor=none;align=left;verticalAlign=top;spacingLeft=4;spacingRight=4;overflow=hidden;rotatable=0;points=[[0,0.5],[1,0.5]];portConstraint=eastwest;whiteSpace=wrap;html=1;" vertex="1" parent="wIxdVw_gFfNHMZUSt5Jz-25">
          <mxGeometry y="26" width="190" height="26" as="geometry" />
        </mxCell>
        <mxCell id="wIxdVw_gFfNHMZUSt5Jz-27" value="+ endereco: String" style="text;strokeColor=none;fillColor=none;align=left;verticalAlign=top;spacingLeft=4;spacingRight=4;overflow=hidden;rotatable=0;points=[[0,0.5],[1,0.5]];portConstraint=eastwest;whiteSpace=wrap;html=1;" vertex="1" parent="wIxdVw_gFfNHMZUSt5Jz-25">
          <mxGeometry y="52" width="190" height="26" as="geometry" />
        </mxCell>
        <mxCell id="wIxdVw_gFfNHMZUSt5Jz-28" value="+ capacidade: String" style="text;strokeColor=none;fillColor=none;align=left;verticalAlign=top;spacingLeft=4;spacingRight=4;overflow=hidden;rotatable=0;points=[[0,0.5],[1,0.5]];portConstraint=eastwest;whiteSpace=wrap;html=1;" vertex="1" parent="wIxdVw_gFfNHMZUSt5Jz-25">
          <mxGeometry y="78" width="190" height="26" as="geometry" />
        </mxCell>
        <mxCell id="wIxdVw_gFfNHMZUSt5Jz-30" value="" style="line;strokeWidth=1;fillColor=none;align=left;verticalAlign=middle;spacingTop=-1;spacingLeft=3;spacingRight=3;rotatable=0;labelPosition=right;points=[];portConstraint=eastwest;strokeColor=inherit;" vertex="1" parent="wIxdVw_gFfNHMZUSt5Jz-25">
          <mxGeometry y="104" width="190" height="8" as="geometry" />
        </mxCell>
        <mxCell id="wIxdVw_gFfNHMZUSt5Jz-31" value="+ verificarDisponibilidade(): Void" style="text;strokeColor=none;fillColor=none;align=left;verticalAlign=top;spacingLeft=4;spacingRight=4;overflow=hidden;rotatable=0;points=[[0,0.5],[1,0.5]];portConstraint=eastwest;whiteSpace=wrap;html=1;" vertex="1" parent="wIxdVw_gFfNHMZUSt5Jz-25">
          <mxGeometry y="112" width="190" height="26" as="geometry" />
        </mxCell>
        <mxCell id="wIxdVw_gFfNHMZUSt5Jz-32" value="País" style="swimlane;fontStyle=1;align=center;verticalAlign=top;childLayout=stackLayout;horizontal=1;startSize=26;horizontalStack=0;resizeParent=1;resizeParentMax=0;resizeLast=0;collapsible=1;marginBottom=0;whiteSpace=wrap;html=1;" vertex="1" parent="1">
          <mxGeometry x="260" y="503" width="190" height="164" as="geometry" />
        </mxCell>
        <mxCell id="wIxdVw_gFfNHMZUSt5Jz-33" value="+ nome: String" style="text;strokeColor=none;fillColor=none;align=left;verticalAlign=top;spacingLeft=4;spacingRight=4;overflow=hidden;rotatable=0;points=[[0,0.5],[1,0.5]];portConstraint=eastwest;whiteSpace=wrap;html=1;" vertex="1" parent="wIxdVw_gFfNHMZUSt5Jz-32">
          <mxGeometry y="26" width="190" height="26" as="geometry" />
        </mxCell>
        <mxCell id="wIxdVw_gFfNHMZUSt5Jz-34" value="+ sigla: String" style="text;strokeColor=none;fillColor=none;align=left;verticalAlign=top;spacingLeft=4;spacingRight=4;overflow=hidden;rotatable=0;points=[[0,0.5],[1,0.5]];portConstraint=eastwest;whiteSpace=wrap;html=1;" vertex="1" parent="wIxdVw_gFfNHMZUSt5Jz-32">
          <mxGeometry y="52" width="190" height="26" as="geometry" />
        </mxCell>
        <mxCell id="wIxdVw_gFfNHMZUSt5Jz-38" value="+ medalhaOuro: String" style="text;strokeColor=none;fillColor=none;align=left;verticalAlign=top;spacingLeft=4;spacingRight=4;overflow=hidden;rotatable=0;points=[[0,0.5],[1,0.5]];portConstraint=eastwest;whiteSpace=wrap;html=1;" vertex="1" parent="wIxdVw_gFfNHMZUSt5Jz-32">
          <mxGeometry y="78" width="190" height="26" as="geometry" />
        </mxCell>
        <mxCell id="wIxdVw_gFfNHMZUSt5Jz-35" value="+ medalhaPrata: String" style="text;strokeColor=none;fillColor=none;align=left;verticalAlign=top;spacingLeft=4;spacingRight=4;overflow=hidden;rotatable=0;points=[[0,0.5],[1,0.5]];portConstraint=eastwest;whiteSpace=wrap;html=1;" vertex="1" parent="wIxdVw_gFfNHMZUSt5Jz-32">
          <mxGeometry y="104" width="190" height="26" as="geometry" />
        </mxCell>
        <mxCell id="wIxdVw_gFfNHMZUSt5Jz-39" value="+ medalhaBronze: String" style="text;strokeColor=none;fillColor=none;align=left;verticalAlign=top;spacingLeft=4;spacingRight=4;overflow=hidden;rotatable=0;points=[[0,0.5],[1,0.5]];portConstraint=eastwest;whiteSpace=wrap;html=1;" vertex="1" parent="wIxdVw_gFfNHMZUSt5Jz-32">
          <mxGeometry y="130" width="190" height="26" as="geometry" />
        </mxCell>
        <mxCell id="wIxdVw_gFfNHMZUSt5Jz-36" value="" style="line;strokeWidth=1;fillColor=none;align=left;verticalAlign=middle;spacingTop=-1;spacingLeft=3;spacingRight=3;rotatable=0;labelPosition=right;points=[];portConstraint=eastwest;strokeColor=inherit;" vertex="1" parent="wIxdVw_gFfNHMZUSt5Jz-32">
          <mxGeometry y="156" width="190" height="8" as="geometry" />
        </mxCell>
        <mxCell id="wIxdVw_gFfNHMZUSt5Jz-40" style="edgeStyle=orthogonalEdgeStyle;rounded=0;orthogonalLoop=1;jettySize=auto;html=1;entryX=0;entryY=0.5;entryDx=0;entryDy=0;" edge="1" parent="1" source="ZuKtEwapp2vnL3nuEhrI-6" target="wIxdVw_gFfNHMZUSt5Jz-26">
          <mxGeometry relative="1" as="geometry" />
        </mxCell>
        <mxCell id="wIxdVw_gFfNHMZUSt5Jz-41" value="1" style="edgeLabel;html=1;align=center;verticalAlign=middle;resizable=0;points=[];" connectable="0" vertex="1" parent="wIxdVw_gFfNHMZUSt5Jz-40">
          <mxGeometry x="-0.4327" y="1" relative="1" as="geometry">
            <mxPoint as="offset" />
          </mxGeometry>
        </mxCell>
        <mxCell id="wIxdVw_gFfNHMZUSt5Jz-42" value="1" style="edgeLabel;html=1;align=center;verticalAlign=middle;resizable=0;points=[];" connectable="0" vertex="1" parent="wIxdVw_gFfNHMZUSt5Jz-40">
          <mxGeometry x="0.5574" relative="1" as="geometry">
            <mxPoint as="offset" />
          </mxGeometry>
        </mxCell>
        <mxCell id="wIxdVw_gFfNHMZUSt5Jz-43" style="edgeStyle=orthogonalEdgeStyle;rounded=0;orthogonalLoop=1;jettySize=auto;html=1;entryX=1;entryY=0.5;entryDx=0;entryDy=0;" edge="1" parent="1" source="ZuKtEwapp2vnL3nuEhrI-6" target="wIxdVw_gFfNHMZUSt5Jz-12">
          <mxGeometry relative="1" as="geometry" />
        </mxCell>
        <mxCell id="wIxdVw_gFfNHMZUSt5Jz-44" value="1" style="edgeLabel;html=1;align=center;verticalAlign=middle;resizable=0;points=[];" connectable="0" vertex="1" parent="wIxdVw_gFfNHMZUSt5Jz-43">
          <mxGeometry x="-0.5202" relative="1" as="geometry">
            <mxPoint as="offset" />
          </mxGeometry>
        </mxCell>
        <mxCell id="wIxdVw_gFfNHMZUSt5Jz-45" value="n" style="edgeLabel;html=1;align=center;verticalAlign=middle;resizable=0;points=[];" connectable="0" vertex="1" parent="wIxdVw_gFfNHMZUSt5Jz-43">
          <mxGeometry x="0.4686" y="-1" relative="1" as="geometry">
            <mxPoint as="offset" />
          </mxGeometry>
        </mxCell>
        <mxCell id="wIxdVw_gFfNHMZUSt5Jz-49" style="edgeStyle=orthogonalEdgeStyle;rounded=0;orthogonalLoop=1;jettySize=auto;html=1;entryX=0;entryY=0.5;entryDx=0;entryDy=0;" edge="1" parent="1" source="wIxdVw_gFfNHMZUSt5Jz-3" target="wIxdVw_gFfNHMZUSt5Jz-21">
          <mxGeometry relative="1" as="geometry" />
        </mxCell>
        <mxCell id="wIxdVw_gFfNHMZUSt5Jz-50" value="1" style="edgeLabel;html=1;align=center;verticalAlign=middle;resizable=0;points=[];" connectable="0" vertex="1" parent="wIxdVw_gFfNHMZUSt5Jz-49">
          <mxGeometry x="-0.4438" y="-1" relative="1" as="geometry">
            <mxPoint as="offset" />
          </mxGeometry>
        </mxCell>
        <mxCell id="wIxdVw_gFfNHMZUSt5Jz-51" value="n" style="edgeLabel;html=1;align=center;verticalAlign=middle;resizable=0;points=[];" connectable="0" vertex="1" parent="wIxdVw_gFfNHMZUSt5Jz-49">
          <mxGeometry x="0.5314" relative="1" as="geometry">
            <mxPoint as="offset" />
          </mxGeometry>
        </mxCell>
        <mxCell id="wIxdVw_gFfNHMZUSt5Jz-52" style="edgeStyle=orthogonalEdgeStyle;rounded=0;orthogonalLoop=1;jettySize=auto;html=1;entryX=0.5;entryY=0;entryDx=0;entryDy=0;" edge="1" parent="1" source="wIxdVw_gFfNHMZUSt5Jz-9" target="wIxdVw_gFfNHMZUSt5Jz-32">
          <mxGeometry relative="1" as="geometry" />
        </mxCell>
        <mxCell id="wIxdVw_gFfNHMZUSt5Jz-57" value="n" style="edgeLabel;html=1;align=center;verticalAlign=middle;resizable=0;points=[];" connectable="0" vertex="1" parent="wIxdVw_gFfNHMZUSt5Jz-52">
          <mxGeometry x="0.3755" relative="1" as="geometry">
            <mxPoint as="offset" />
          </mxGeometry>
        </mxCell>
        <mxCell id="wIxdVw_gFfNHMZUSt5Jz-58" value="n" style="edgeLabel;html=1;align=center;verticalAlign=middle;resizable=0;points=[];" connectable="0" vertex="1" parent="wIxdVw_gFfNHMZUSt5Jz-52">
          <mxGeometry x="-0.6547" y="3" relative="1" as="geometry">
            <mxPoint as="offset" />
          </mxGeometry>
        </mxCell>
        <mxCell id="wIxdVw_gFfNHMZUSt5Jz-54" style="edgeStyle=orthogonalEdgeStyle;rounded=0;orthogonalLoop=1;jettySize=auto;html=1;" edge="1" parent="1" source="wIxdVw_gFfNHMZUSt5Jz-24" target="wIxdVw_gFfNHMZUSt5Jz-32">
          <mxGeometry relative="1" as="geometry">
            <mxPoint x="380" y="480" as="targetPoint" />
            <Array as="points">
              <mxPoint x="390" y="431" />
            </Array>
          </mxGeometry>
        </mxCell>
        <mxCell id="wIxdVw_gFfNHMZUSt5Jz-55" value="n" style="edgeLabel;html=1;align=center;verticalAlign=middle;resizable=0;points=[];" connectable="0" vertex="1" parent="wIxdVw_gFfNHMZUSt5Jz-54">
          <mxGeometry x="-0.7975" y="2" relative="1" as="geometry">
            <mxPoint as="offset" />
          </mxGeometry>
        </mxCell>
        <mxCell id="wIxdVw_gFfNHMZUSt5Jz-56" value="n" style="edgeLabel;html=1;align=center;verticalAlign=middle;resizable=0;points=[];" connectable="0" vertex="1" parent="wIxdVw_gFfNHMZUSt5Jz-54">
          <mxGeometry x="0.5947" y="1" relative="1" as="geometry">
            <mxPoint as="offset" />
          </mxGeometry>
        </mxCell>
      </root>
    </mxGraphModel>
  </diagram>
  <diagram id="nCAoySRXv3jWbXY6qopf" name="Pacotes">
    <mxGraphModel grid="1" page="1" gridSize="10" guides="1" tooltips="1" connect="1" arrows="1" fold="1" pageScale="1" pageWidth="827" pageHeight="1169" math="0" shadow="0">
      <root>
        <mxCell id="0" />
        <mxCell id="1" parent="0" />
        <mxCell id="TOxhdnCvifhZBg5ZCkzH-9" value="" style="shape=folder;fontStyle=1;spacingTop=10;tabWidth=40;tabHeight=14;tabPosition=left;html=1;whiteSpace=wrap;" vertex="1" parent="1">
          <mxGeometry x="414" y="60" width="280" height="300" as="geometry" />
        </mxCell>
        <mxCell id="TOxhdnCvifhZBg5ZCkzH-1" value="" style="shape=folder;fontStyle=1;spacingTop=10;tabWidth=40;tabHeight=14;tabPosition=left;html=1;whiteSpace=wrap;" vertex="1" parent="1">
          <mxGeometry x="80" y="60" width="280" height="300" as="geometry" />
        </mxCell>
        <mxCell id="TOxhdnCvifhZBg5ZCkzH-2" value="Model" style="text;html=1;align=center;verticalAlign=middle;whiteSpace=wrap;rounded=0;" vertex="1" parent="1">
          <mxGeometry x="190" y="80" width="60" height="30" as="geometry" />
        </mxCell>
        <mxCell id="TOxhdnCvifhZBg5ZCkzH-3" value="Competicao" style="shape=folder;fontStyle=1;spacingTop=10;tabWidth=40;tabHeight=14;tabPosition=left;html=1;whiteSpace=wrap;" vertex="1" parent="1">
          <mxGeometry x="120" y="140" width="70" height="50" as="geometry" />
        </mxCell>
        <mxCell id="TOxhdnCvifhZBg5ZCkzH-4" value="Atleta" style="shape=folder;fontStyle=1;spacingTop=10;tabWidth=40;tabHeight=14;tabPosition=left;html=1;whiteSpace=wrap;" vertex="1" parent="1">
          <mxGeometry x="220" y="140" width="70" height="50" as="geometry" />
        </mxCell>
        <mxCell id="TOxhdnCvifhZBg5ZCkzH-5" value="Pais" style="shape=folder;fontStyle=1;spacingTop=10;tabWidth=40;tabHeight=14;tabPosition=left;html=1;whiteSpace=wrap;" vertex="1" parent="1">
          <mxGeometry x="120" y="210" width="70" height="50" as="geometry" />
        </mxCell>
        <mxCell id="TOxhdnCvifhZBg5ZCkzH-6" value="Resultado" style="shape=folder;fontStyle=1;spacingTop=10;tabWidth=40;tabHeight=14;tabPosition=left;html=1;whiteSpace=wrap;" vertex="1" parent="1">
          <mxGeometry x="220" y="210" width="70" height="50" as="geometry" />
        </mxCell>
        <mxCell id="TOxhdnCvifhZBg5ZCkzH-7" value="Medalhas" style="shape=folder;fontStyle=1;spacingTop=10;tabWidth=40;tabHeight=14;tabPosition=left;html=1;whiteSpace=wrap;" vertex="1" parent="1">
          <mxGeometry x="120" y="280" width="70" height="50" as="geometry" />
        </mxCell>
        <mxCell id="TOxhdnCvifhZBg5ZCkzH-8" value="Local" style="shape=folder;fontStyle=1;spacingTop=10;tabWidth=40;tabHeight=14;tabPosition=left;html=1;whiteSpace=wrap;" vertex="1" parent="1">
          <mxGeometry x="220" y="280" width="70" height="50" as="geometry" />
        </mxCell>
        <mxCell id="TOxhdnCvifhZBg5ZCkzH-10" value="CompeticaoView" style="shape=folder;fontStyle=1;spacingTop=10;tabWidth=40;tabHeight=14;tabPosition=left;html=1;whiteSpace=wrap;" vertex="1" parent="1">
          <mxGeometry x="499" y="140" width="110" height="50" as="geometry" />
        </mxCell>
        <mxCell id="TOxhdnCvifhZBg5ZCkzH-11" value="AtletaView" style="shape=folder;fontStyle=1;spacingTop=10;tabWidth=40;tabHeight=14;tabPosition=left;html=1;whiteSpace=wrap;" vertex="1" parent="1">
          <mxGeometry x="499" y="210" width="110" height="50" as="geometry" />
        </mxCell>
        <mxCell id="TOxhdnCvifhZBg5ZCkzH-12" value="MedalhasView" style="shape=folder;fontStyle=1;spacingTop=10;tabWidth=40;tabHeight=14;tabPosition=left;html=1;whiteSpace=wrap;" vertex="1" parent="1">
          <mxGeometry x="499" y="280" width="110" height="50" as="geometry" />
        </mxCell>
        <mxCell id="TOxhdnCvifhZBg5ZCkzH-13" value="View" style="text;html=1;align=center;verticalAlign=middle;whiteSpace=wrap;rounded=0;" vertex="1" parent="1">
          <mxGeometry x="524" y="90" width="60" height="30" as="geometry" />
        </mxCell>
        <mxCell id="CWEmOPgbt0Gu3dKg8llc-1" value="" style="shape=folder;fontStyle=1;spacingTop=10;tabWidth=40;tabHeight=14;tabPosition=left;html=1;whiteSpace=wrap;" vertex="1" parent="1">
          <mxGeometry x="260" y="380" width="280" height="300" as="geometry" />
        </mxCell>
        <mxCell id="kuGnNbhbAYFgK0Mxht9t-1" value="CompeticaoController" style="shape=folder;fontStyle=1;spacingTop=10;tabWidth=40;tabHeight=14;tabPosition=left;html=1;whiteSpace=wrap;" vertex="1" parent="1">
          <mxGeometry x="320" y="450" width="140" height="60" as="geometry" />
        </mxCell>
        <mxCell id="kuGnNbhbAYFgK0Mxht9t-2" value="AtletaController" style="shape=folder;fontStyle=1;spacingTop=10;tabWidth=40;tabHeight=14;tabPosition=left;html=1;whiteSpace=wrap;" vertex="1" parent="1">
          <mxGeometry x="320" y="530" width="140" height="60" as="geometry" />
        </mxCell>
        <mxCell id="kuGnNbhbAYFgK0Mxht9t-3" value="LocalController" style="shape=folder;fontStyle=1;spacingTop=10;tabWidth=40;tabHeight=14;tabPosition=left;html=1;whiteSpace=wrap;" vertex="1" parent="1">
          <mxGeometry x="320" y="610" width="140" height="60" as="geometry" />
        </mxCell>
        <mxCell id="kuGnNbhbAYFgK0Mxht9t-4" value="Controller" style="text;html=1;align=center;verticalAlign=middle;whiteSpace=wrap;rounded=0;" vertex="1" parent="1">
          <mxGeometry x="370" y="410" width="60" height="30" as="geometry" />
        </mxCell>
      </root>
    </mxGraphModel>
  </diagram>
  <diagram id="7O8u5mb87WEiwkxE4DEg" name="Componentes">
    <mxGraphModel grid="1" page="1" gridSize="10" guides="1" tooltips="1" connect="1" arrows="1" fold="1" pageScale="1" pageWidth="827" pageHeight="1169" math="0" shadow="0">
      <root>
        <mxCell id="0" />
        <mxCell id="1" parent="0" />
        <UserObject label="" plantUmlData="{&#xa;  &quot;data&quot;: &quot;\n@startuml\nnode \&quot;Servidores de Aplicação\&quot; {\n  [Servidor Web] \n  [Servidor de Aplicação]\n\n  component \&quot;Módulo de Inscrições\&quot; as Inscricoes\n  component \&quot;Módulo de Alocação\&quot; as Alocacao\n  component \&quot;Módulo de Resultados\&quot; as Resultados\n  component \&quot;Módulo de Relatórios\&quot; as Relatorios\n\n  [Servidor Web] --&gt; Inscricoes\n  [Servidor Web] --&gt; Alocacao\n  [Servidor Web] --&gt; Resultados\n  [Servidor Web] --&gt; Relatorios\n}\n\nnode \&quot;Servidor de Banco de Dados\&quot; {\n  database \&quot;Banco de Dados SGO\&quot; as DB {\n    [Tabela de Competições]\n    [Tabela de Atletas]\n    [Tabela de Locais]\n    [Tabela de Resultados]\n    [Tabela de Medalhas]\n  }\n  \n  Inscricoes --&gt; DB : \&quot;Gravar Dados\&quot;\n  Alocacao --&gt; DB : \&quot;Gravar e Consultar Locais\&quot;\n  Resultados --&gt; DB : \&quot;Gravar Resultados\&quot;\n  Relatorios --&gt; DB : \&quot;Consultar Dados de Medalhas\&quot;\n}\n\ncloud \&quot;Internet\&quot; {\n  node \&quot;Dispositivo do Usuário\&quot; as Cliente {\n    [Navegador Web] --&gt; [Servidor Web] : HTTP Requests\n  }\n}\n\nCliente --&gt; [Servidor Web] : Conexão via HTTPS\n[Servidor de Aplicação] --&gt; [Servidor de Banco de Dados] : Consultas SQL\n@enduml&quot;,&#xa;  &quot;format&quot;: &quot;svg&quot;&#xa;}" id="e6NRiIPz-7yA1Q0ES4Q2-3">
          <mxCell style="shape=image;noLabel=1;verticalAlign=top;aspect=fixed;imageAspect=0;image=data:image/svg+xml,PD94bWwgdmVyc2lvbj0iMS4wIiBlbmNvZGluZz0idXMtYXNjaWkiIHN0YW5kYWxvbmU9Im5vIj8+PHN2ZyB4bWxucz0iaHR0cDovL3d3dy53My5vcmcvMjAwMC9zdmciIHhtbG5zOnhsaW5rPSJodHRwOi8vd3d3LnczLm9yZy8xOTk5L3hsaW5rIiBjb250ZW50U3R5bGVUeXBlPSJ0ZXh0L2NzcyIgaGVpZ2h0PSI4NjZweCIgcHJlc2VydmVBc3BlY3RSYXRpbz0ibm9uZSIgc3R5bGU9IndpZHRoOjEwMjFweDtoZWlnaHQ6ODY2cHg7YmFja2dyb3VuZDojRkZGRkZGOyIgdmVyc2lvbj0iMS4xIiB2aWV3Qm94PSIwIDAgMTAyMSA4NjYiIHdpZHRoPSIxMDIxcHgiIHpvb21BbmRQYW49Im1hZ25pZnkiPjxkZWZzLz48Zz48IS0tY2x1c3RlciBTZXJ2aWRvcmVzIGRlIEFwbGljYT8/by0tPjxnIGlkPSJjbHVzdGVyX1NlcnZpZG9yZXMgZGUgQXBsaWNhJiMyMzE7JiMyMjc7byI+PHBvbHlnb24gZmlsbD0ibm9uZSIgcG9pbnRzPSIxNiwyNjYuMzczMiwyNiwyNTYuMzczMiw4NTksMjU2LjM3MzIsODU5LDQ1MS4zNzMyLDg0OSw0NjEuMzczMiwxNiw0NjEuMzczMiwxNiwyNjYuMzczMiIgc3R5bGU9InN0cm9rZTojMTgxODE4O3N0cm9rZS13aWR0aDoxLjA7Ii8+PGxpbmUgc3R5bGU9InN0cm9rZTojMTgxODE4O3N0cm9rZS13aWR0aDoxLjA7IiB4MT0iODQ5IiB4Mj0iODU5IiB5MT0iMjY2LjM3MzIiIHkyPSIyNTYuMzczMiIvPjxsaW5lIHN0eWxlPSJzdHJva2U6IzE4MTgxODtzdHJva2Utd2lkdGg6MS4wOyIgeDE9IjE2IiB4Mj0iODQ5IiB5MT0iMjY2LjM3MzIiIHkyPSIyNjYuMzczMiIvPjxsaW5lIHN0eWxlPSJzdHJva2U6IzE4MTgxODtzdHJva2Utd2lkdGg6MS4wOyIgeDE9Ijg0OSIgeDI9Ijg0OSIgeTE9IjI2Ni4zNzMyIiB5Mj0iNDYxLjM3MzIiLz48dGV4dCBmaWxsPSIjMDAwMDAwIiBmb250LWZhbWlseT0ic2Fucy1zZXJpZiIgZm9udC1zaXplPSIxNCIgZm9udC13ZWlnaHQ9ImJvbGQiIGxlbmd0aEFkanVzdD0ic3BhY2luZyIgdGV4dExlbmd0aD0iMTYxIiB4PSIzNTMiIHk9IjI4Mi42MDc2Ij5TZXJ2aWRvcmVzIGRlIEFwbGljYSYjMjMxOyYjMjI3O288L3RleHQ+PC9nPjwhLS1jbHVzdGVyIFNlcnZpZG9yIGRlIEJhbmNvIGRlIERhZG9zLS0+PGcgaWQ9ImNsdXN0ZXJfU2Vydmlkb3IgZGUgQmFuY28gZGUgRGFkb3MiPjxwb2x5Z29uIGZpbGw9Im5vbmUiIHBvaW50cz0iMjc2LDUyNi4zNzMyLDI4Niw1MTYuMzczMiwxMDAxLDUxNi4zNzMyLDEwMDEsODM5LjM3MzIsOTkxLDg0OS4zNzMyLDI3Niw4NDkuMzczMiwyNzYsNTI2LjM3MzIiIHN0eWxlPSJzdHJva2U6IzE4MTgxODtzdHJva2Utd2lkdGg6MS4wOyIvPjxsaW5lIHN0eWxlPSJzdHJva2U6IzE4MTgxODtzdHJva2Utd2lkdGg6MS4wOyIgeDE9Ijk5MSIgeDI9IjEwMDEiIHkxPSI1MjYuMzczMiIgeTI9IjUxNi4zNzMyIi8+PGxpbmUgc3R5bGU9InN0cm9rZTojMTgxODE4O3N0cm9rZS13aWR0aDoxLjA7IiB4MT0iMjc2IiB4Mj0iOTkxIiB5MT0iNTI2LjM3MzIiIHkyPSI1MjYuMzczMiIvPjxsaW5lIHN0eWxlPSJzdHJva2U6IzE4MTgxODtzdHJva2Utd2lkdGg6MS4wOyIgeDE9Ijk5MSIgeDI9Ijk5MSIgeTE9IjUyNi4zNzMyIiB5Mj0iODQ5LjM3MzIiLz48dGV4dCBmaWxsPSIjMDAwMDAwIiBmb250LWZhbWlseT0ic2Fucy1zZXJpZiIgZm9udC1zaXplPSIxNCIgZm9udC13ZWlnaHQ9ImJvbGQiIGxlbmd0aEFkanVzdD0ic3BhY2luZyIgdGV4dExlbmd0aD0iMTgyIiB4PSI1NDMuNSIgeT0iNTQyLjYwNzYiPlNlcnZpZG9yIGRlIEJhbmNvIGRlIERhZG9zPC90ZXh0PjwvZz48IS0tY2x1c3RlciBEQi0tPjxnIGlkPSJjbHVzdGVyX0RCIj48cGF0aCBkPSJNMzE2LDU4OC4zNzMyIEMzMTYsNTc4LjM3MzIgNjM0LjUsNTc4LjM3MzIgNjM0LjUsNTc4LjM3MzIgQzYzNC41LDU3OC4zNzMyIDk1Myw1NzguMzczMiA5NTMsNTg4LjM3MzIgTDk1Myw3OTkuMzczMiBDOTUzLDgwOS4zNzMyIDYzNC41LDgwOS4zNzMyIDYzNC41LDgwOS4zNzMyIEM2MzQuNSw4MDkuMzczMiAzMTYsODA5LjM3MzIgMzE2LDc5OS4zNzMyIEwzMTYsNTg4LjM3MzIgIiBmaWxsPSJub25lIiBzdHlsZT0ic3Ryb2tlOiMxODE4MTg7c3Ryb2tlLXdpZHRoOjEuMDsiLz48cGF0aCBkPSJNMzE2LDU4OC4zNzMyIEMzMTYsNTk4LjM3MzIgNjM0LjUsNTk4LjM3MzIgNjM0LjUsNTk4LjM3MzIgQzYzNC41LDU5OC4zNzMyIDk1Myw1OTguMzczMiA5NTMsNTg4LjM3MzIgIiBmaWxsPSJub25lIiBzdHlsZT0ic3Ryb2tlOiMxODE4MTg7c3Ryb2tlLXdpZHRoOjEuMDsiLz48dGV4dCBmaWxsPSIjMDAwMDAwIiBmb250LWZhbWlseT0ic2Fucy1zZXJpZiIgZm9udC1zaXplPSIxNCIgZm9udC13ZWlnaHQ9ImJvbGQiIGxlbmd0aEFkanVzdD0ic3BhY2luZyIgdGV4dExlbmd0aD0iMTI2IiB4PSI1NzEuNSIgeT0iNjEzLjYwNzYiPkJhbmNvIGRlIERhZG9zIFNHTzwvdGV4dD48L2c+PCEtLWNsdXN0ZXIgSW50ZXJuZXQtLT48ZyBpZD0iY2x1c3Rlcl9JbnRlcm5ldCI+PHBhdGggZD0iTTMxOS43OTQsMjEuNDIyIEMzMjUuMzcwNSwxMi43OTgxIDMzMi44OTI2LDExLjQwNSAzMzguNDA0NywyMS40ODU5IEMzNDMuODAyNiwxMC4wODI0IDM1MS43OTQyLDEwLjI3ODIgMzU4Ljc5NTcsMTkuOTMzMSBDMzY1LjE0MTksMTEuODg3NSAzNzEuMTk3Miw4Ljk4MjMgMzc4LjE4NTQsMTkuMjUzNSBDMzgzLjgxMTksMTIuNjI3OCAzOTEuNDQ4NywxMi4xOTU4IDM5NS41MTI0LDIxLjAwNzcgQzQwMS4yNTUzLDEyLjEzNDcgNDA4LjM1NDYsMTEuMDAwNCA0MTUuNDAzMSwxOS41MTQxIEM0MTguODg1NCwxMS45ODMgNDI2LjM2MiwxMC43NjkzIDQzMS45OTg3LDE2Ljg5NjMgQzQzOC43NjkzLDYuNTU0MSA0NDYuNzQwOSw2IDQ1My4zMTA1LDE3LjA5NjIgQzQ1OS4wMTg5LDYuNTkzOCA0NjUuODk0MSw4LjY4ODQgNDcyLjI1OTMsMTYuNDEzMyBDNDc3LjQ3MzMsOC45NzIxIDQ4NS4zMzczLDguNDU4NiA0OTAuMDUzNiwxNi45Njg1IEM0OTcuODI1OSw4LjA0NTIgNTA0LjA3NzksMTAuNDI0MiA1MDkuNzAxOSwxOS4zMzUzIEM1MTQuMDkxNywxMS40MzI1IDUyMi40MjY1LDEwLjY1OTEgNTI2LjgyODcsMTkuMzIyNSBDNTMzLjEyOTksOS44MTkyIDU0Mi4zMjY4LDEyLjU3OTYgNTQ1LjY1MTYsMjIuMjQ1MSBDNTUyLjUzMzIsMTIuMDg1IDU1OS43MDEsMTIuODc5NCA1NjUuOTQ2OCwyMi44ODUgQzU3NS44MTAzLDEzLjY4NDkgNTg0LjUwMTIsMTUuMDM4OCA1ODksMjguMzczMiBDNTkwLjQzNTYsMjYuODA4NSA1OTEuNjk5NCwyNi44NTU4IDU5Mi42NDkxLDI4Ljg2ODggQzYwMC41MzMzLDM1LjI3MjUgNjAwLjQxMzIsNDQuMTQ2OSA1OTEuMTUzMSw0OS4yOTUgQzYwMy4xOTMyLDU2LjY1MDQgNjAxLjY1NTcsNjQuNDEzNiA1OTEuMTMwMiw3MS43NDU5IEM2MDEuODc2Myw3Ny4yNzM3IDYwMi4yMjU5LDg0LjI5NTkgNTkzLjQ0OTksOTIuMDUzNiBDNjAxLjU5NTMsOTguODg2MSA2MDMuODQ5MSwxMDUuNzM4NyA1OTMuMTE2OSwxMTIuMjYwMSBDNjA0LjI0NDQsMTE3Ljg3MTggNjA0LjM0MjUsMTI4LjA2MTUgNTkzLjIxNTcsMTMzLjc3NTUgQzYwMC42NTA5LDE0MC42MzAyIDYwMC44MTc1LDE0OC42NjM5IDU5MC43MzgzLDE1My4yOTU5IEM2MDAuNzE2LDE2MC4wNTQxIDYwMC4xMjc2LDE2OC45NjUyIDU5MC43NzMxLDE3NS43NTM1IEM2MDAuNTE2NiwxODguNTMzNSA1OTguNjA5OSwxOTcuNjE3NSA1ODIsMjAxLjM3MzIgQzU4My41NzAzLDIwMC41Nzg3IDU4NC40MTM0LDIwMC45MDk0IDU4NC42ODE4LDIwMi43MTU3IEM1NzkuMDAzOSwyMTMuNzAyOSA1NzEuMTY4OCwyMTQuNzcxMiA1NjMuODgxOSwyMDQuMjczMyBDNTU3LjQ0NywyMTIuMTM5OCA1NTAuMzQwNywyMTMuMjM5NSA1NDQuNTE0MiwyMDMuNjAwMiBDNTQxLjU5NTIsMjEyLjIzNjkgNTM0LjA1OTEsMjExLjU5MTMgNTI5LjA1MDEsMjA1Ljg0NzggQzUyNC4yMzIsMjE1LjQxMTQgNTE1LjI3NTksMjE1LjE3NDMgNTA5Ljc5ODUsMjA2LjU0NTQgQzUwMi4zMjQyLDIxNi43ODU4IDQ5NS4wNDk3LDIxNC41OTUyIDQ4OC41MDM5LDIwNS41MjE3IEM0ODMuNTgsMjEzLjY5MDQgNDc1LjI0ODUsMjE1LjY2IDQ2OS42ODA2LDIwNi4yMDk2IEM0NjYuMzkzNywyMTQuNjAyNiA0NTguODY4MSwyMTYuOTU3NCA0NTIuNTQ0OSwyMDkuNDkgQzQ0Ni4xMzc4LDIxOC4yNTA4IDQzOS4wNTQ4LDIxOC4zNzA2IDQzMy4yNTYxLDIwOC44NDgxIEM0MjYuMTEwMSwyMTkuMzk4NyA0MTkuNDYwMSwyMTguODc5NiA0MTIuOTU0LDIwOC4yMzUxIEM0MDYuMDk1OSwyMTUuNzA4IDM5OC44NjkxLDIxMy43MTQ4IDM5NC42ODIxLDIwNS4xODUzIEMzODguOTkyLDIxNC40Njc3IDM4Mi43MDI2LDIxNS4wNTE1IDM3NS40NzUxLDIwNi44NzY5IEMzNjkuNDgyNiwyMTYuNjg4OSAzNjIuMjE1NSwyMTYuNDIyNCAzNTYuOTczMiwyMDYuMTg0NiBDMzQ5LjkyOTQsMjE0LjUwNTcgMzQyLjE0MDYsMjExLjU0MjcgMzM4LjgwNDIsMjAyLjM0MDUgQzMyNy42MTU2LDIxMi4xOTEyIDMxNC41ODcsMjExLjA1MDggMzExLDE5NC4zNzMyIEMzMTMuMTcyMiwxOTQuMzQ0OCAzMTQuODI2NSwxOTUuNTkxNCAzMTMuNTUyOCwxOTcuOTkzMiBDMzA0LjQyNjMsMTkyLjAyNTcgMzAzLjkyMTQsMTgzLjg3NDggMzEyLjIyNDEsMTc2LjgxMzkgQzI5OC41MzU0LDE3MC43NjU4IDMwMC44MzAzLDE2My4wNjg0IDMwOC44ODQ0LDE1My44NTcxIEMyOTkuMDAxLDE0OS4zMDk1IDI5OC4zMzM4LDE0My4xNTg0IDMwNS43MTY0LDEzNS42MTI3IEMyOTQuNjY1NSwxMjkuMjM1OCAyOTYuMTAxNywxMTkuMDE4NSAzMDYuNTM4OSwxMTMuNDM4NyBDMjk3LjM1MzcsMTA1Ljg2ODEgMjk2LjY5NzksOTYuNDI4NyAzMDguOTI0NCw5MS4xNDk4IEMzMDAuOTc4LDg1LjQwODcgMjk5LjQwNSw3NS41Mjg0IDMxMC40NTcxLDcxLjI1MDcgQzI5OC43NjAzLDY1LjAwMTMgMjk4Ljc3NjEsNTcuODg1MyAzMDkuNDYwNCw1MC41NTggQzI5OS4wMDUsMzYuNjcwOSAyOTkuNzg3MywyNi44NzE4IDMxOCwyMS4zNzMyIEMzMTguNTcsMjAuNDA4MyAzMTkuMjc1OCwyMC40ODExIDMxOS43OTQsMjEuNDIyICIgZmlsbD0ibm9uZSIgc3R5bGU9InN0cm9rZTojMTgxODE4O3N0cm9rZS13aWR0aDoxLjA7Ii8+PHRleHQgZmlsbD0iIzAwMDAwMCIgZm9udC1mYW1pbHk9InNhbnMtc2VyaWYiIGZvbnQtc2l6ZT0iMTQiIGZvbnQtd2VpZ2h0PSJib2xkIiBsZW5ndGhBZGp1c3Q9InNwYWNpbmciIHRleHRMZW5ndGg9IjU2IiB4PSI0MjIiIHk9IjM5LjYwNzYiPkludGVybmV0PC90ZXh0PjwvZz48IS0tY2x1c3RlciBDbGllbnRlLS0+PGcgaWQ9ImNsdXN0ZXJfQ2xpZW50ZSI+PHBvbHlnb24gZmlsbD0ibm9uZSIgcG9pbnRzPSIzMzUsNzIuMzczMiwzNDUsNjIuMzczMiw1NjUsNjIuMzczMiw1NjUsMTY3LjM3MzIsNTU1LDE3Ny4zNzMyLDMzNSwxNzcuMzczMiwzMzUsNzIuMzczMiIgc3R5bGU9InN0cm9rZTojMTgxODE4O3N0cm9rZS13aWR0aDoxLjA7Ii8+PGxpbmUgc3R5bGU9InN0cm9rZTojMTgxODE4O3N0cm9rZS13aWR0aDoxLjA7IiB4MT0iNTU1IiB4Mj0iNTY1IiB5MT0iNzIuMzczMiIgeTI9IjYyLjM3MzIiLz48bGluZSBzdHlsZT0ic3Ryb2tlOiMxODE4MTg7c3Ryb2tlLXdpZHRoOjEuMDsiIHgxPSIzMzUiIHgyPSI1NTUiIHkxPSI3Mi4zNzMyIiB5Mj0iNzIuMzczMiIvPjxsaW5lIHN0eWxlPSJzdHJva2U6IzE4MTgxODtzdHJva2Utd2lkdGg6MS4wOyIgeDE9IjU1NSIgeDI9IjU1NSIgeTE9IjcyLjM3MzIiIHkyPSIxNzcuMzczMiIvPjx0ZXh0IGZpbGw9IiMwMDAwMDAiIGZvbnQtZmFtaWx5PSJzYW5zLXNlcmlmIiBmb250LXNpemU9IjE0IiBmb250LXdlaWdodD0iYm9sZCIgbGVuZ3RoQWRqdXN0PSJzcGFjaW5nIiB0ZXh0TGVuZ3RoPSIxNTQiIHg9IjM2OSIgeT0iODguNjA3NiI+RGlzcG9zaXRpdm8gZG8gVXN1JiMyMjU7cmlvPC90ZXh0PjwvZz48IS0tZW50aXR5IFNlcnZpZG9yIFdlYi0tPjxnIGlkPSJlbGVtX1NlcnZpZG9yIFdlYiI+PHJlY3QgZmlsbD0iI0YxRjFGMSIgaGVpZ2h0PSI0NC45ODQ0IiByeD0iMi41IiByeT0iMi41IiBzdHlsZT0ic3Ryb2tlOiMxODE4MTg7c3Ryb2tlLXdpZHRoOjAuNTsiIHdpZHRoPSIxMjQiIHg9IjM0NyIgeT0iMjk0LjM3MzIiLz48cmVjdCBmaWxsPSIjRjFGMUYxIiBoZWlnaHQ9IjEwIiBzdHlsZT0ic3Ryb2tlOiMxODE4MTg7c3Ryb2tlLXdpZHRoOjAuNTsiIHdpZHRoPSIxNSIgeD0iNDUxIiB5PSIyOTkuMzczMiIvPjxyZWN0IGZpbGw9IiNGMUYxRjEiIGhlaWdodD0iMiIgc3R5bGU9InN0cm9rZTojMTgxODE4O3N0cm9rZS13aWR0aDowLjU7IiB3aWR0aD0iNCIgeD0iNDQ5IiB5PSIzMDEuMzczMiIvPjxyZWN0IGZpbGw9IiNGMUYxRjEiIGhlaWdodD0iMiIgc3R5bGU9InN0cm9rZTojMTgxODE4O3N0cm9rZS13aWR0aDowLjU7IiB3aWR0aD0iNCIgeD0iNDQ5IiB5PSIzMDUuMzczMiIvPjx0ZXh0IGZpbGw9IiMwMDAwMDAiIGZvbnQtZmFtaWx5PSJzYW5zLXNlcmlmIiBmb250LXNpemU9IjE0IiBsZW5ndGhBZGp1c3Q9InNwYWNpbmciIHRleHRMZW5ndGg9Ijg0IiB4PSIzNjIiIHk9IjMyNy42MDc2Ij5TZXJ2aWRvciBXZWI8L3RleHQ+PC9nPjwhLS1lbnRpdHkgU2Vydmlkb3IgZGUgQXBsaWNhPz9vLS0+PGcgaWQ9ImVsZW1fU2Vydmlkb3IgZGUgQXBsaWNhJiMyMzE7JiMyMjc7byI+PHJlY3QgZmlsbD0iI0YxRjFGMSIgaGVpZ2h0PSI0NC45ODQ0IiByeD0iMi41IiByeT0iMi41IiBzdHlsZT0ic3Ryb2tlOiMxODE4MTg7c3Ryb2tlLXdpZHRoOjAuNTsiIHdpZHRoPSIxODciIHg9IjY1Ni41IiB5PSIyOTQuMzczMiIvPjxyZWN0IGZpbGw9IiNGMUYxRjEiIGhlaWdodD0iMTAiIHN0eWxlPSJzdHJva2U6IzE4MTgxODtzdHJva2Utd2lkdGg6MC41OyIgd2lkdGg9IjE1IiB4PSI4MjMuNSIgeT0iMjk5LjM3MzIiLz48cmVjdCBmaWxsPSIjRjFGMUYxIiBoZWlnaHQ9IjIiIHN0eWxlPSJzdHJva2U6IzE4MTgxODtzdHJva2Utd2lkdGg6MC41OyIgd2lkdGg9IjQiIHg9IjgyMS41IiB5PSIzMDEuMzczMiIvPjxyZWN0IGZpbGw9IiNGMUYxRjEiIGhlaWdodD0iMiIgc3R5bGU9InN0cm9rZTojMTgxODE4O3N0cm9rZS13aWR0aDowLjU7IiB3aWR0aD0iNCIgeD0iODIxLjUiIHk9IjMwNS4zNzMyIi8+PHRleHQgZmlsbD0iIzAwMDAwMCIgZm9udC1mYW1pbHk9InNhbnMtc2VyaWYiIGZvbnQtc2l6ZT0iMTQiIGxlbmd0aEFkanVzdD0ic3BhY2luZyIgdGV4dExlbmd0aD0iMTQ3IiB4PSI2NzEuNSIgeT0iMzI3LjYwNzYiPlNlcnZpZG9yIGRlIEFwbGljYSYjMjMxOyYjMjI3O288L3RleHQ+PC9nPjwhLS1lbnRpdHkgSW5zY3JpY29lcy0tPjxnIGlkPSJlbGVtX0luc2NyaWNvZXMiPjxyZWN0IGZpbGw9IiNGMUYxRjEiIGhlaWdodD0iNDQuOTg0NCIgcng9IjIuNSIgcnk9IjIuNSIgc3R5bGU9InN0cm9rZTojMTgxODE4O3N0cm9rZS13aWR0aDowLjU7IiB3aWR0aD0iMTgwIiB4PSIzMiIgeT0iNDAwLjM3MzIiLz48cmVjdCBmaWxsPSIjRjFGMUYxIiBoZWlnaHQ9IjEwIiBzdHlsZT0ic3Ryb2tlOiMxODE4MTg7c3Ryb2tlLXdpZHRoOjAuNTsiIHdpZHRoPSIxNSIgeD0iMTkyIiB5PSI0MDUuMzczMiIvPjxyZWN0IGZpbGw9IiNGMUYxRjEiIGhlaWdodD0iMiIgc3R5bGU9InN0cm9rZTojMTgxODE4O3N0cm9rZS13aWR0aDowLjU7IiB3aWR0aD0iNCIgeD0iMTkwIiB5PSI0MDcuMzczMiIvPjxyZWN0IGZpbGw9IiNGMUYxRjEiIGhlaWdodD0iMiIgc3R5bGU9InN0cm9rZTojMTgxODE4O3N0cm9rZS13aWR0aDowLjU7IiB3aWR0aD0iNCIgeD0iMTkwIiB5PSI0MTEuMzczMiIvPjx0ZXh0IGZpbGw9IiMwMDAwMDAiIGZvbnQtZmFtaWx5PSJzYW5zLXNlcmlmIiBmb250LXNpemU9IjE0IiBsZW5ndGhBZGp1c3Q9InNwYWNpbmciIHRleHRMZW5ndGg9IjE0MCIgeD0iNDciIHk9IjQzMy42MDc2Ij5NJiMyNDM7ZHVsbyBkZSBJbnNjcmkmIzIzMTsmIzI0NTtlczwvdGV4dD48L2c+PCEtLWVudGl0eSBBbG9jYWNhby0tPjxnIGlkPSJlbGVtX0Fsb2NhY2FvIj48cmVjdCBmaWxsPSIjRjFGMUYxIiBoZWlnaHQ9IjQ0Ljk4NDQiIHJ4PSIyLjUiIHJ5PSIyLjUiIHN0eWxlPSJzdHJva2U6IzE4MTgxODtzdHJva2Utd2lkdGg6MC41OyIgd2lkdGg9IjE2NiIgeD0iMjQ3IiB5PSI0MDAuMzczMiIvPjxyZWN0IGZpbGw9IiNGMUYxRjEiIGhlaWdodD0iMTAiIHN0eWxlPSJzdHJva2U6IzE4MTgxODtzdHJva2Utd2lkdGg6MC41OyIgd2lkdGg9IjE1IiB4PSIzOTMiIHk9IjQwNS4zNzMyIi8+PHJlY3QgZmlsbD0iI0YxRjFGMSIgaGVpZ2h0PSIyIiBzdHlsZT0ic3Ryb2tlOiMxODE4MTg7c3Ryb2tlLXdpZHRoOjAuNTsiIHdpZHRoPSI0IiB4PSIzOTEiIHk9IjQwNy4zNzMyIi8+PHJlY3QgZmlsbD0iI0YxRjFGMSIgaGVpZ2h0PSIyIiBzdHlsZT0ic3Ryb2tlOiMxODE4MTg7c3Ryb2tlLXdpZHRoOjAuNTsiIHdpZHRoPSI0IiB4PSIzOTEiIHk9IjQxMS4zNzMyIi8+PHRleHQgZmlsbD0iIzAwMDAwMCIgZm9udC1mYW1pbHk9InNhbnMtc2VyaWYiIGZvbnQtc2l6ZT0iMTQiIGxlbmd0aEFkanVzdD0ic3BhY2luZyIgdGV4dExlbmd0aD0iMTI2IiB4PSIyNjIiIHk9IjQzMy42MDc2Ij5NJiMyNDM7ZHVsbyBkZSBBbG9jYSYjMjMxOyYjMjI3O288L3RleHQ+PC9nPjwhLS1lbnRpdHkgUmVzdWx0YWRvcy0tPjxnIGlkPSJlbGVtX1Jlc3VsdGFkb3MiPjxyZWN0IGZpbGw9IiNGMUYxRjEiIGhlaWdodD0iNDQuOTg0NCIgcng9IjIuNSIgcnk9IjIuNSIgc3R5bGU9InN0cm9rZTojMTgxODE4O3N0cm9rZS13aWR0aDowLjU7IiB3aWR0aD0iMTgwIiB4PSI0NDgiIHk9IjQwMC4zNzMyIi8+PHJlY3QgZmlsbD0iI0YxRjFGMSIgaGVpZ2h0PSIxMCIgc3R5bGU9InN0cm9rZTojMTgxODE4O3N0cm9rZS13aWR0aDowLjU7IiB3aWR0aD0iMTUiIHg9IjYwOCIgeT0iNDA1LjM3MzIiLz48cmVjdCBmaWxsPSIjRjFGMUYxIiBoZWlnaHQ9IjIiIHN0eWxlPSJzdHJva2U6IzE4MTgxODtzdHJva2Utd2lkdGg6MC41OyIgd2lkdGg9IjQiIHg9IjYwNiIgeT0iNDA3LjM3MzIiLz48cmVjdCBmaWxsPSIjRjFGMUYxIiBoZWlnaHQ9IjIiIHN0eWxlPSJzdHJva2U6IzE4MTgxODtzdHJva2Utd2lkdGg6MC41OyIgd2lkdGg9IjQiIHg9IjYwNiIgeT0iNDExLjM3MzIiLz48dGV4dCBmaWxsPSIjMDAwMDAwIiBmb250LWZhbWlseT0ic2Fucy1zZXJpZiIgZm9udC1zaXplPSIxNCIgbGVuZ3RoQWRqdXN0PSJzcGFjaW5nIiB0ZXh0TGVuZ3RoPSIxNDAiIHg9IjQ2MyIgeT0iNDMzLjYwNzYiPk0mIzI0MztkdWxvIGRlIFJlc3VsdGFkb3M8L3RleHQ+PC9nPjwhLS1lbnRpdHkgUmVsYXRvcmlvcy0tPjxnIGlkPSJlbGVtX1JlbGF0b3Jpb3MiPjxyZWN0IGZpbGw9IiNGMUYxRjEiIGhlaWdodD0iNDQuOTg0NCIgcng9IjIuNSIgcnk9IjIuNSIgc3R5bGU9InN0cm9rZTojMTgxODE4O3N0cm9rZS13aWR0aDowLjU7IiB3aWR0aD0iMTgwIiB4PSI2NjMiIHk9IjQwMC4zNzMyIi8+PHJlY3QgZmlsbD0iI0YxRjFGMSIgaGVpZ2h0PSIxMCIgc3R5bGU9InN0cm9rZTojMTgxODE4O3N0cm9rZS13aWR0aDowLjU7IiB3aWR0aD0iMTUiIHg9IjgyMyIgeT0iNDA1LjM3MzIiLz48cmVjdCBmaWxsPSIjRjFGMUYxIiBoZWlnaHQ9IjIiIHN0eWxlPSJzdHJva2U6IzE4MTgxODtzdHJva2Utd2lkdGg6MC41OyIgd2lkdGg9IjQiIHg9IjgyMSIgeT0iNDA3LjM3MzIiLz48cmVjdCBmaWxsPSIjRjFGMUYxIiBoZWlnaHQ9IjIiIHN0eWxlPSJzdHJva2U6IzE4MTgxODtzdHJva2Utd2lkdGg6MC41OyIgd2lkdGg9IjQiIHg9IjgyMSIgeT0iNDExLjM3MzIiLz48dGV4dCBmaWxsPSIjMDAwMDAwIiBmb250LWZhbWlseT0ic2Fucy1zZXJpZiIgZm9udC1zaXplPSIxNCIgbGVuZ3RoQWRqdXN0PSJzcGFjaW5nIiB0ZXh0TGVuZ3RoPSIxNDAiIHg9IjY3OCIgeT0iNDMzLjYwNzYiPk0mIzI0MztkdWxvIGRlIFJlbGF0JiMyNDM7cmlvczwvdGV4dD48L2c+PCEtLWVudGl0eSBUYWJlbGEgZGUgQ29tcGV0aT8/ZXMtLT48ZyBpZD0iZWxlbV9UYWJlbGEgZGUgQ29tcGV0aSYjMjMxOyYjMjQ1O2VzIj48cmVjdCBmaWxsPSIjRjFGMUYxIiBoZWlnaHQ9IjQ0Ljk4NDQiIHJ4PSIyLjUiIHJ5PSIyLjUiIHN0eWxlPSJzdHJva2U6IzE4MTgxODtzdHJva2Utd2lkdGg6MC41OyIgd2lkdGg9IjE4OCIgeD0iMzU5IiB5PSI2MzQuMzczMiIvPjxyZWN0IGZpbGw9IiNGMUYxRjEiIGhlaWdodD0iMTAiIHN0eWxlPSJzdHJva2U6IzE4MTgxODtzdHJva2Utd2lkdGg6MC41OyIgd2lkdGg9IjE1IiB4PSI1MjciIHk9IjYzOS4zNzMyIi8+PHJlY3QgZmlsbD0iI0YxRjFGMSIgaGVpZ2h0PSIyIiBzdHlsZT0ic3Ryb2tlOiMxODE4MTg7c3Ryb2tlLXdpZHRoOjAuNTsiIHdpZHRoPSI0IiB4PSI1MjUiIHk9IjY0MS4zNzMyIi8+PHJlY3QgZmlsbD0iI0YxRjFGMSIgaGVpZ2h0PSIyIiBzdHlsZT0ic3Ryb2tlOiMxODE4MTg7c3Ryb2tlLXdpZHRoOjAuNTsiIHdpZHRoPSI0IiB4PSI1MjUiIHk9IjY0NS4zNzMyIi8+PHRleHQgZmlsbD0iIzAwMDAwMCIgZm9udC1mYW1pbHk9InNhbnMtc2VyaWYiIGZvbnQtc2l6ZT0iMTQiIGxlbmd0aEFkanVzdD0ic3BhY2luZyIgdGV4dExlbmd0aD0iMTQ4IiB4PSIzNzQiIHk9IjY2Ny42MDc2Ij5UYWJlbGEgZGUgQ29tcGV0aSYjMjMxOyYjMjQ1O2VzPC90ZXh0PjwvZz48IS0tZW50aXR5IFRhYmVsYSBkZSBBdGxldGFzLS0+PGcgaWQ9ImVsZW1fVGFiZWxhIGRlIEF0bGV0YXMiPjxyZWN0IGZpbGw9IiNGMUYxRjEiIGhlaWdodD0iNDQuOTg0NCIgcng9IjIuNSIgcnk9IjIuNSIgc3R5bGU9InN0cm9rZTojMTgxODE4O3N0cm9rZS13aWR0aDowLjU7IiB3aWR0aD0iMTU5IiB4PSI1ODIuNSIgeT0iNjM0LjM3MzIiLz48cmVjdCBmaWxsPSIjRjFGMUYxIiBoZWlnaHQ9IjEwIiBzdHlsZT0ic3Ryb2tlOiMxODE4MTg7c3Ryb2tlLXdpZHRoOjAuNTsiIHdpZHRoPSIxNSIgeD0iNzIxLjUiIHk9IjYzOS4zNzMyIi8+PHJlY3QgZmlsbD0iI0YxRjFGMSIgaGVpZ2h0PSIyIiBzdHlsZT0ic3Ryb2tlOiMxODE4MTg7c3Ryb2tlLXdpZHRoOjAuNTsiIHdpZHRoPSI0IiB4PSI3MTkuNSIgeT0iNjQxLjM3MzIiLz48cmVjdCBmaWxsPSIjRjFGMUYxIiBoZWlnaHQ9IjIiIHN0eWxlPSJzdHJva2U6IzE4MTgxODtzdHJva2Utd2lkdGg6MC41OyIgd2lkdGg9IjQiIHg9IjcxOS41IiB5PSI2NDUuMzczMiIvPjx0ZXh0IGZpbGw9IiMwMDAwMDAiIGZvbnQtZmFtaWx5PSJzYW5zLXNlcmlmIiBmb250LXNpemU9IjE0IiBsZW5ndGhBZGp1c3Q9InNwYWNpbmciIHRleHRMZW5ndGg9IjExOSIgeD0iNTk3LjUiIHk9IjY2Ny42MDc2Ij5UYWJlbGEgZGUgQXRsZXRhczwvdGV4dD48L2c+PCEtLWVudGl0eSBUYWJlbGEgZGUgTG9jYWlzLS0+PGcgaWQ9ImVsZW1fVGFiZWxhIGRlIExvY2FpcyI+PHJlY3QgZmlsbD0iI0YxRjFGMSIgaGVpZ2h0PSI0NC45ODQ0IiByeD0iMi41IiByeT0iMi41IiBzdHlsZT0ic3Ryb2tlOiMxODE4MTg7c3Ryb2tlLXdpZHRoOjAuNTsiIHdpZHRoPSIxNTIiIHg9Ijc3NyIgeT0iNjM0LjM3MzIiLz48cmVjdCBmaWxsPSIjRjFGMUYxIiBoZWlnaHQ9IjEwIiBzdHlsZT0ic3Ryb2tlOiMxODE4MTg7c3Ryb2tlLXdpZHRoOjAuNTsiIHdpZHRoPSIxNSIgeD0iOTA5IiB5PSI2MzkuMzczMiIvPjxyZWN0IGZpbGw9IiNGMUYxRjEiIGhlaWdodD0iMiIgc3R5bGU9InN0cm9rZTojMTgxODE4O3N0cm9rZS13aWR0aDowLjU7IiB3aWR0aD0iNCIgeD0iOTA3IiB5PSI2NDEuMzczMiIvPjxyZWN0IGZpbGw9IiNGMUYxRjEiIGhlaWdodD0iMiIgc3R5bGU9InN0cm9rZTojMTgxODE4O3N0cm9rZS13aWR0aDowLjU7IiB3aWR0aD0iNCIgeD0iOTA3IiB5PSI2NDUuMzczMiIvPjx0ZXh0IGZpbGw9IiMwMDAwMDAiIGZvbnQtZmFtaWx5PSJzYW5zLXNlcmlmIiBmb250LXNpemU9IjE0IiBsZW5ndGhBZGp1c3Q9InNwYWNpbmciIHRleHRMZW5ndGg9IjExMiIgeD0iNzkyIiB5PSI2NjcuNjA3NiI+VGFiZWxhIGRlIExvY2FpczwvdGV4dD48L2c+PCEtLWVudGl0eSBUYWJlbGEgZGUgUmVzdWx0YWRvcy0tPjxnIGlkPSJlbGVtX1RhYmVsYSBkZSBSZXN1bHRhZG9zIj48cmVjdCBmaWxsPSIjRjFGMUYxIiBoZWlnaHQ9IjQ0Ljk4NDQiIHJ4PSIyLjUiIHJ5PSIyLjUiIHN0eWxlPSJzdHJva2U6IzE4MTgxODtzdHJva2Utd2lkdGg6MC41OyIgd2lkdGg9IjE4MCIgeD0iMzYzIiB5PSI3NDAuMzczMiIvPjxyZWN0IGZpbGw9IiNGMUYxRjEiIGhlaWdodD0iMTAiIHN0eWxlPSJzdHJva2U6IzE4MTgxODtzdHJva2Utd2lkdGg6MC41OyIgd2lkdGg9IjE1IiB4PSI1MjMiIHk9Ijc0NS4zNzMyIi8+PHJlY3QgZmlsbD0iI0YxRjFGMSIgaGVpZ2h0PSIyIiBzdHlsZT0ic3Ryb2tlOiMxODE4MTg7c3Ryb2tlLXdpZHRoOjAuNTsiIHdpZHRoPSI0IiB4PSI1MjEiIHk9Ijc0Ny4zNzMyIi8+PHJlY3QgZmlsbD0iI0YxRjFGMSIgaGVpZ2h0PSIyIiBzdHlsZT0ic3Ryb2tlOiMxODE4MTg7c3Ryb2tlLXdpZHRoOjAuNTsiIHdpZHRoPSI0IiB4PSI1MjEiIHk9Ijc1MS4zNzMyIi8+PHRleHQgZmlsbD0iIzAwMDAwMCIgZm9udC1mYW1pbHk9InNhbnMtc2VyaWYiIGZvbnQtc2l6ZT0iMTQiIGxlbmd0aEFkanVzdD0ic3BhY2luZyIgdGV4dExlbmd0aD0iMTQwIiB4PSIzNzgiIHk9Ijc3My42MDc2Ij5UYWJlbGEgZGUgUmVzdWx0YWRvczwvdGV4dD48L2c+PCEtLWVudGl0eSBUYWJlbGEgZGUgTWVkYWxoYXMtLT48ZyBpZD0iZWxlbV9UYWJlbGEgZGUgTWVkYWxoYXMiPjxyZWN0IGZpbGw9IiNGMUYxRjEiIGhlaWdodD0iNDQuOTg0NCIgcng9IjIuNSIgcnk9IjIuNSIgc3R5bGU9InN0cm9rZTojMTgxODE4O3N0cm9rZS13aWR0aDowLjU7IiB3aWR0aD0iMTY2IiB4PSI1NzgiIHk9Ijc0MC4zNzMyIi8+PHJlY3QgZmlsbD0iI0YxRjFGMSIgaGVpZ2h0PSIxMCIgc3R5bGU9InN0cm9rZTojMTgxODE4O3N0cm9rZS13aWR0aDowLjU7IiB3aWR0aD0iMTUiIHg9IjcyNCIgeT0iNzQ1LjM3MzIiLz48cmVjdCBmaWxsPSIjRjFGMUYxIiBoZWlnaHQ9IjIiIHN0eWxlPSJzdHJva2U6IzE4MTgxODtzdHJva2Utd2lkdGg6MC41OyIgd2lkdGg9IjQiIHg9IjcyMiIgeT0iNzQ3LjM3MzIiLz48cmVjdCBmaWxsPSIjRjFGMUYxIiBoZWlnaHQ9IjIiIHN0eWxlPSJzdHJva2U6IzE4MTgxODtzdHJva2Utd2lkdGg6MC41OyIgd2lkdGg9IjQiIHg9IjcyMiIgeT0iNzUxLjM3MzIiLz48dGV4dCBmaWxsPSIjMDAwMDAwIiBmb250LWZhbWlseT0ic2Fucy1zZXJpZiIgZm9udC1zaXplPSIxNCIgbGVuZ3RoQWRqdXN0PSJzcGFjaW5nIiB0ZXh0TGVuZ3RoPSIxMjYiIHg9IjU5MyIgeT0iNzczLjYwNzYiPlRhYmVsYSBkZSBNZWRhbGhhczwvdGV4dD48L2c+PCEtLWVudGl0eSBOYXZlZ2Fkb3IgV2ViLS0+PGcgaWQ9ImVsZW1fTmF2ZWdhZG9yIFdlYiI+PHJlY3QgZmlsbD0iI0YxRjFGMSIgaGVpZ2h0PSI0NC45ODQ0IiByeD0iMi41IiByeT0iMi41IiBzdHlsZT0ic3Ryb2tlOiMxODE4MTg7c3Ryb2tlLXdpZHRoOjAuNTsiIHdpZHRoPSIxMzEiIHg9IjQwOS41IiB5PSIxMDguMzczMiIvPjxyZWN0IGZpbGw9IiNGMUYxRjEiIGhlaWdodD0iMTAiIHN0eWxlPSJzdHJva2U6IzE4MTgxODtzdHJva2Utd2lkdGg6MC41OyIgd2lkdGg9IjE1IiB4PSI1MjAuNSIgeT0iMTEzLjM3MzIiLz48cmVjdCBmaWxsPSIjRjFGMUYxIiBoZWlnaHQ9IjIiIHN0eWxlPSJzdHJva2U6IzE4MTgxODtzdHJva2Utd2lkdGg6MC41OyIgd2lkdGg9IjQiIHg9IjUxOC41IiB5PSIxMTUuMzczMiIvPjxyZWN0IGZpbGw9IiNGMUYxRjEiIGhlaWdodD0iMiIgc3R5bGU9InN0cm9rZTojMTgxODE4O3N0cm9rZS13aWR0aDowLjU7IiB3aWR0aD0iNCIgeD0iNTE4LjUiIHk9IjExOS4zNzMyIi8+PHRleHQgZmlsbD0iIzAwMDAwMCIgZm9udC1mYW1pbHk9InNhbnMtc2VyaWYiIGZvbnQtc2l6ZT0iMTQiIGxlbmd0aEFkanVzdD0ic3BhY2luZyIgdGV4dExlbmd0aD0iOTEiIHg9IjQyNC41IiB5PSIxNDEuNjA3NiI+TmF2ZWdhZG9yIFdlYjwvdGV4dD48L2c+PCEtLWxpbmsgU2Vydmlkb3IgV2ViIHRvIEluc2NyaWNvZXMtLT48ZyBpZD0ibGlua19TZXJ2aWRvciBXZWJfSW5zY3JpY29lcyI+PHBhdGggZD0iTTM0OS41MywzMzkuNDIzMiBDMzAwLjI4LDM1Ny4yNzMyIDIzNi4yNzEyLDM4MC40Njk0IDE4Ny4wMzEyLDM5OC4zMDk0ICIgZmlsbD0ibm9uZSIgaWQ9IlNlcnZpZG9yIFdlYi10by1JbnNjcmljb2VzIiBzdHlsZT0ic3Ryb2tlOiMxODE4MTg7c3Ryb2tlLXdpZHRoOjEuMDsiLz48cG9seWdvbiBmaWxsPSIjMTgxODE4IiBwb2ludHM9IjE4MS4zOSw0MDAuMzUzMiwxOTEuMjE0Myw0MDEuMDQ4MiwxODYuMDkxLDM5OC42NSwxODguNDg5MiwzOTMuNTI2NywxODEuMzksNDAwLjM1MzIiIHN0eWxlPSJzdHJva2U6IzE4MTgxODtzdHJva2Utd2lkdGg6MS4wOyIvPjwvZz48IS0tbGluayBTZXJ2aWRvciBXZWIgdG8gQWxvY2FjYW8tLT48ZyBpZD0ibGlua19TZXJ2aWRvciBXZWJfQWxvY2FjYW8iPjxwYXRoIGQ9Ik0zOTIuNjMsMzM5LjQyMzIgQzM3OS4wNywzNTcuMjczMiAzNjMuNTI5MSwzNzcuNzM1MSAzNDkuOTc5MSwzOTUuNTc1MSAiIGZpbGw9Im5vbmUiIGlkPSJTZXJ2aWRvciBXZWItdG8tQWxvY2FjYW8iIHN0eWxlPSJzdHJva2U6IzE4MTgxODtzdHJva2Utd2lkdGg6MS4wOyIvPjxwb2x5Z29uIGZpbGw9IiMxODE4MTgiIHBvaW50cz0iMzQ2LjM1LDQwMC4zNTMyLDM1NC45NzksMzk1LjYwNTUsMzQ5LjM3NDIsMzk2LjM3MTUsMzQ4LjYwODIsMzkwLjc2NjcsMzQ2LjM1LDQwMC4zNTMyIiBzdHlsZT0ic3Ryb2tlOiMxODE4MTg7c3Ryb2tlLXdpZHRoOjEuMDsiLz48L2c+PCEtLWxpbmsgU2Vydmlkb3IgV2ViIHRvIFJlc3VsdGFkb3MtLT48ZyBpZD0ibGlua19TZXJ2aWRvciBXZWJfUmVzdWx0YWRvcyI+PHBhdGggZD0iTTQzNS43MywzMzkuNDIzMiBDNDU3Ljg3LDM1Ny4yNzMyIDQ4NC41MDg4LDM3OC43NDc2IDUwNi42Mzg4LDM5Ni41ODc2ICIgZmlsbD0ibm9uZSIgaWQ9IlNlcnZpZG9yIFdlYi10by1SZXN1bHRhZG9zIiBzdHlsZT0ic3Ryb2tlOiMxODE4MTg7c3Ryb2tlLXdpZHRoOjEuMDsiLz48cG9seWdvbiBmaWxsPSIjMTgxODE4IiBwb2ludHM9IjUxMS4zMSw0MDAuMzUzMiw1MDYuODEzNywzOTEuNTkwNiw1MDcuNDE3NCwzOTcuMjE1Miw1MDEuNzkyOCwzOTcuODE4OSw1MTEuMzEsNDAwLjM1MzIiIHN0eWxlPSJzdHJva2U6IzE4MTgxODtzdHJva2Utd2lkdGg6MS4wOyIvPjwvZz48IS0tbGluayBTZXJ2aWRvciBXZWIgdG8gUmVsYXRvcmlvcy0tPjxnIGlkPSJsaW5rX1NlcnZpZG9yIFdlYl9SZWxhdG9yaW9zIj48cGF0aCBkPSJNNDcxLjMsMzM2LjcwMzIgQzUzMC41NCwzNTQuNjIzMiA2MTMuODQ2NiwzNzkuODA3MyA2NzUuOTE2NiwzOTguNTY3MyAiIGZpbGw9Im5vbmUiIGlkPSJTZXJ2aWRvciBXZWItdG8tUmVsYXRvcmlvcyIgc3R5bGU9InN0cm9rZTojMTgxODE4O3N0cm9rZS13aWR0aDoxLjA7Ii8+PHBvbHlnb24gZmlsbD0iIzE4MTgxOCIgcG9pbnRzPSI2ODEuNjYsNDAwLjMwMzIsNjc0LjIwMjEsMzkzLjg3MDQsNjc2Ljg3MzgsMzk4Ljg1NjYsNjcxLjg4NzYsNDAxLjUyODMsNjgxLjY2LDQwMC4zMDMyIiBzdHlsZT0ic3Ryb2tlOiMxODE4MTg7c3Ryb2tlLXdpZHRoOjEuMDsiLz48L2c+PCEtLWxpbmsgSW5zY3JpY29lcyB0byBEQi0tPjxnIGlkPSJsaW5rX0luc2NyaWNvZXNfREIiPjxwYXRoIGQ9Ik0xNDEsNDQ1LjcwMzIgQzE2NS43NSw0NzQuMTI4MiAyMTAuNDY3NSw1MjUuNDg1NyAyNDkuNTAxMiw1NzAuMzE1NyBDMjY5LjAxODEsNTkyLjczMDcgMjg3LjExNDEsNjEzLjUxMzggMzAwLjU4MjcsNjI4Ljk4MjYgQzMwMy45NDk4LDYzMi44NDk4IDMwNy4wMjc3LDYzNi4zODQ4IDMwOS43NjY0LDYzOS41MzAyIEMzMTEuMTM1Nyw2NDEuMTAyOCAzMTIuNDIwMiw2NDIuNTc4MSAzMTMuNjEzNiw2NDMuOTQ4NyBDMzE0LjIxMDMsNjQ0LjYzNCAzMTQuNzg0Miw2NDUuMjkzMiAzMTUuMzM0Niw2NDUuOTI1MyBDMzE1LjQ3MjIsNjQ2LjA4MzQgMzExLjY2ODMsNjQxLjcxNDYgMzExLjgwMyw2NDEuODY5MiAiIGZpbGw9Im5vbmUiIGlkPSJJbnNjcmljb2VzLXRvLURCIiBzdHlsZT0ic3Ryb2tlOiMxODE4MTg7c3Ryb2tlLXdpZHRoOjEuMDsiLz48cG9seWdvbiBmaWxsPSIjMTgxODE4IiBwb2ludHM9IjMxNS43NDI5LDY0Ni4zOTQzLDMxMi44NDk3LDYzNi45OCwzMTIuNDU5Niw2NDIuNjIzNCwzMDYuODE2Miw2NDIuMjMzMywzMTUuNzQyOSw2NDYuMzk0MyIgc3R5bGU9InN0cm9rZTojMTgxODE4O3N0cm9rZS13aWR0aDoxLjA7Ii8+PHRleHQgZmlsbD0iIzAwMDAwMCIgZm9udC1mYW1pbHk9InNhbnMtc2VyaWYiIGZvbnQtc2l6ZT0iMTMiIGxlbmd0aEFkanVzdD0ic3BhY2luZyIgdGV4dExlbmd0aD0iODQiIHg9IjE3OCIgeT0iNDkwLjY2MjMiPkdyYXZhciBEYWRvczwvdGV4dD48L2c+PCEtLWxpbmsgQWxvY2FjYW8gdG8gREItLT48ZyBpZD0ibGlua19BbG9jYWNhb19EQiI+PHBhdGggZD0iTTMyNS41NCw0NDUuMzczMiBDMzIzLjc0LDQ1NS4xMDMyIDMyMS44OSw0NjYuNzYzMiAzMjEsNDc3LjM3MzIgQzMxOS4zNzUsNDk2LjgzMDcgMzE4LjczMTMsNTE3LjUyMiAzMTguNjg0Miw1MzcuNjYxMyBDMzE4LjY2MDcsNTQ3LjczMSAzMTguNzg2NCw1NTcuNjYyNyAzMTkuMDEzMSw1NjcuMjMzMyBDMzE5LjA2OTgsNTY5LjYyNTkgMzE5LjEzMjksNTcxLjk5NiAzMTkuMjAxNCw1NzQuMzQgQzMxOS4yMzU3LDU3NS41MTIgMzE5LjA4LDU3MC42ODA1IDMxOS4xMTcsNTcxLjgzOTEgIiBmaWxsPSJub25lIiBpZD0iQWxvY2FjYW8tdG8tREIiIHN0eWxlPSJzdHJva2U6IzE4MTgxODtzdHJva2Utd2lkdGg6MS4wOyIvPjxwb2x5Z29uIGZpbGw9IiMxODE4MTgiIHBvaW50cz0iMzE5LjMwODQsNTc3LjgzNiwzMjMuMDE5Miw1NjguNzEzLDMxOS4xNDg5LDU3Mi44Mzg2LDMxNS4wMjMzLDU2OC45NjgyLDMxOS4zMDg0LDU3Ny44MzYiIHN0eWxlPSJzdHJva2U6IzE4MTgxODtzdHJva2Utd2lkdGg6MS4wOyIvPjx0ZXh0IGZpbGw9IiMwMDAwMDAiIGZvbnQtZmFtaWx5PSJzYW5zLXNlcmlmIiBmb250LXNpemU9IjEzIiBsZW5ndGhBZGp1c3Q9InNwYWNpbmciIHRleHRMZW5ndGg9IjE3MiIgeD0iMzIyIiB5PSI0OTAuNjYyMyI+R3JhdmFyIGUgQ29uc3VsdGFyIExvY2FpczwvdGV4dD48L2c+PCEtLWxpbmsgUmVzdWx0YWRvcyB0byBEQi0tPjxnIGlkPSJsaW5rX1Jlc3VsdGFkb3NfREIiPjxwYXRoIGQ9Ik01MzEuODksNDQ1LjQ3MzIgQzUyNi4xNiw0NjEuMzczMiA1MTUuODksNDgxLjk2MzIgNDk5LDQ5Mi4zNzMyIEM0ODQuMjIsNTAxLjQ3MzIgMzU1LjcsNDg4LjU0MzIgMzQzLDUwMC4zNzMyIEMzMTcuOTMsNTIzLjczODIgMzEyLjkzNSw1NjEuNzczMiAzMTQuMzI3NSw1OTQuMzc3IEMzMTQuNTAxNiw1OTguNDUyNCAzMTQuNzc1NCw2MDIuNDQzIDMxNS4xMjI0LDYwNi4zMDk1IEMzMTUuMjk1OCw2MDguMjQyOCAzMTUuNDg3Niw2MTAuMTQ1IDMxNS42OTQyLDYxMi4wMTEyIEMzMTUuNzQ1OSw2MTIuNDc3OCAzMTUuNzk4NSw2MTIuOTQyMSAzMTUuODUyLDYxMy40MDQxIEMzMTUuODc4Nyw2MTMuNjM1MSAzMTUuMjAxMiw2MDcuOTA3IDMxNS4yMjg0LDYwOC4xMzY5ICIgZmlsbD0ibm9uZSIgaWQ9IlJlc3VsdGFkb3MtdG8tREIiIHN0eWxlPSJzdHJva2U6IzE4MTgxODtzdHJva2Utd2lkdGg6MS4wOyIvPjxwb2x5Z29uIGZpbGw9IiMxODE4MTgiIHBvaW50cz0iMzE1LjkzMjksNjE0LjA5NTQsMzE4Ljg0ODQsNjA0LjY4OCwzMTUuMzQ1OCw2MDkuMTMsMzEwLjkwMzgsNjA1LjYyNzMsMzE1LjkzMjksNjE0LjA5NTQiIHN0eWxlPSJzdHJva2U6IzE4MTgxODtzdHJva2Utd2lkdGg6MS4wOyIvPjx0ZXh0IGZpbGw9IiMwMDAwMDAiIGZvbnQtZmFtaWx5PSJzYW5zLXNlcmlmIiBmb250LXNpemU9IjEzIiBsZW5ndGhBZGp1c3Q9InNwYWNpbmciIHRleHRMZW5ndGg9IjExNyIgeD0iNTE1IiB5PSI0OTAuNjYyMyI+R3JhdmFyIFJlc3VsdGFkb3M8L3RleHQ+PC9nPjwhLS1saW5rIFJlbGF0b3Jpb3MgdG8gREItLT48ZyBpZD0ibGlua19SZWxhdG9yaW9zX0RCIj48cGF0aCBkPSJNNzI2Ljg1LDQ0NS4zODMyIEM3MDUuMjksNDYxLjY4MzIgNjczLjEzLDQ4Mi44NjMyIDY0MSw0OTIuMzczMiBDNjI1LjEyLDQ5Ny4wNzMyIDM1NS4yNSw0ODkuMjMzMiAzNDMsNTAwLjM3MzIgQzMxNy42NSw1MjMuNDI4MiAzMTIuNjUsNTYxLjQ1ODIgMzE0LjExLDU5NC4xMzcgQzMxNC4yOTI1LDU5OC4yMjE4IDMxNC41NzU5LDYwMi4yMjMgMzE0LjkzMzIsNjA2LjEwMDkgQzMxNS4xMTE4LDYwOC4wMzk5IDMxNS4zMDg5LDYwOS45NDggMzE1LjUyMSw2MTEuODIwNCBDMzE1LjYyNzEsNjEyLjc1NjUgMzE1LjczNjksNjEzLjY4MzggMzE1Ljg1MDEsNjE0LjYwMTQgQzMxNS44Nzg0LDYxNC44MzA4IDMxNS4xNTgxLDYwOS4xMDY2IDMxNS4xODY4LDYwOS4zMzQ4ICIgZmlsbD0ibm9uZSIgaWQ9IlJlbGF0b3Jpb3MtdG8tREIiIHN0eWxlPSJzdHJva2U6IzE4MTgxODtzdHJva2Utd2lkdGg6MS4wOyIvPjxwb2x5Z29uIGZpbGw9IiMxODE4MTgiIHBvaW50cz0iMzE1LjkzNTYsNjE1LjI4NzksMzE4Ljc4MTEsNjA1Ljg1OSwzMTUuMzExNiw2MTAuMzI3LDMxMC44NDM3LDYwNi44NTc0LDMxNS45MzU2LDYxNS4yODc5IiBzdHlsZT0ic3Ryb2tlOiMxODE4MTg7c3Ryb2tlLXdpZHRoOjEuMDsiLz48dGV4dCBmaWxsPSIjMDAwMDAwIiBmb250LWZhbWlseT0ic2Fucy1zZXJpZiIgZm9udC1zaXplPSIxMyIgbGVuZ3RoQWRqdXN0PSJzcGFjaW5nIiB0ZXh0TGVuZ3RoPSIxODYiIHg9IjY3NSIgeT0iNDkwLjY2MjMiPkNvbnN1bHRhciBEYWRvcyBkZSBNZWRhbGhhczwvdGV4dD48L2c+PCEtLWxpbmsgTmF2ZWdhZG9yIFdlYiB0byBTZXJ2aWRvciBXZWItLT48ZyBpZD0ibGlua19OYXZlZ2Fkb3IgV2ViX1NlcnZpZG9yIFdlYiI+PHBhdGggZD0iTTQ3MS40NywxNTMuNTUzMiBDNDY3LjQ2LDE3NS44MDMyIDQ2MC4wMiwyMTEuMjAzMiA0NDksMjQwLjM3MzIgQzQ0MS44NywyNTkuMjQzMiA0MzQuMDU2NywyNzQuMTkyNiA0MjUuNDU2NywyODguOTEyNiAiIGZpbGw9Im5vbmUiIGlkPSJOYXZlZ2Fkb3IgV2ViLXRvLVNlcnZpZG9yIFdlYiIgc3R5bGU9InN0cm9rZTojMTgxODE4O3N0cm9rZS13aWR0aDoxLjA7Ii8+PHBvbHlnb24gZmlsbD0iIzE4MTgxOCIgcG9pbnRzPSI0MjIuNDMsMjk0LjA5MzIsNDMwLjQyMzgsMjg4LjM0MDEsNDI0Ljk1MjMsMjg5Ljc3Niw0MjMuNTE2MywyODQuMzA0NCw0MjIuNDMsMjk0LjA5MzIiIHN0eWxlPSJzdHJva2U6IzE4MTgxODtzdHJva2Utd2lkdGg6MS4wOyIvPjx0ZXh0IGZpbGw9IiMwMDAwMDAiIGZvbnQtZmFtaWx5PSJzYW5zLXNlcmlmIiBmb250LXNpemU9IjEzIiBsZW5ndGhBZGp1c3Q9InNwYWNpbmciIHRleHRMZW5ndGg9Ijg4IiB4PSI0NTQiIHk9IjIzOC42NjIzIj5IVFRQIFJlcXVlc3RzPC90ZXh0PjwvZz48IS0tbGluayBDbGllbnRlIHRvIFNlcnZpZG9yIFdlYi0tPjxnIGlkPSJsaW5rX0NsaWVudGVfU2Vydmlkb3IgV2ViIj48cGF0aCBkPSJNMzM0Ljg1MDIsMTQ2Ljg4NCBDMzM0LjczNDMsMTQ3LjEyMTIgMzM0LjYxNzcsMTQ3LjM2MDcgMzM0LjUwMDYsMTQ3LjYwMjQgQzMzNC4yNjY1LDE0OC4wODU5IDMzNC4wMzAxLDE0OC41Nzg1IDMzMy43OTE5LDE0OS4wNzk4IEMzMzIuODM5MiwxNTEuMDg1IDMzMS44NTc0LDE1My4yMzAzIDMzMC44Njk5LDE1NS40OTY0IEMzMjguODk1LDE2MC4wMjg0IDMyNi44OTc1LDE2NS4wNDM1IDMyNS4wNjUsMTcwLjM4NyBDMzE3LjczNSwxOTEuNzYwNyAzMTMuMDQ1LDIxOC4zODgyIDMyMywyNDAuMzczMiBDMzMzLjE2LDI2Mi44MTMyIDM0OC43NTk1LDI3Ny43NzEyIDM2Ny4xODk1LDI5MC43OTEyICIgZmlsbD0ibm9uZSIgaWQ9IkNsaWVudGUtdG8tU2Vydmlkb3IgV2ViIiBzdHlsZT0ic3Ryb2tlOiMxODE4MTg7c3Ryb2tlLXdpZHRoOjEuMDsiLz48cG9seWdvbiBmaWxsPSIjMTgxODE4IiBwb2ludHM9IjM3Mi4wOSwyOTQuMjUzMiwzNjcuMDQ3MywyODUuNzkzMywzNjguMDA2MywyOTEuMzY4MiwzNjIuNDMxMywyOTIuMzI3MiwzNzIuMDksMjk0LjI1MzIiIHN0eWxlPSJzdHJva2U6IzE4MTgxODtzdHJva2Utd2lkdGg6MS4wOyIvPjx0ZXh0IGZpbGw9IiMwMDAwMDAiIGZvbnQtZmFtaWx5PSJzYW5zLXNlcmlmIiBmb250LXNpemU9IjEzIiBsZW5ndGhBZGp1c3Q9InNwYWNpbmciIHRleHRMZW5ndGg9IjExNiIgeD0iMzI0IiB5PSIyMzguNjYyMyI+Q29uZXgmIzIyNztvIHZpYSBIVFRQUzwvdGV4dD48L2c+PCEtLWxpbmsgU2Vydmlkb3IgZGUgQXBsaWNhPz9vIHRvIFNlcnZpZG9yIGRlIEJhbmNvIGRlIERhZG9zLS0+PGcgaWQ9ImxpbmtfU2Vydmlkb3IgZGUgQXBsaWNhJiMyMzE7JiMyMjc7b19TZXJ2aWRvciBkZSBCYW5jbyBkZSBEYWRvcyI+PHBhdGggZD0iTTc4NC4xNywzMzkuNDYzMiBDODI4Ljg2LDM2OS42NjMyIDkwNi4wNiw0MjguOTIzMiA5NDUsNTAwLjM3MzIgQzk0Ny4xMjk0LDUwNC4yODA3IDk0OS4xNzg0LDUwOC4yOTYgOTUxLjE0OSw1MTIuMzkxIEM5NTEuNjQxNyw1MTMuNDE0NyA5NTIuMTI5NCw1MTQuNDQzNSA5NTIuNjEyMiw1MTUuNDc2NyBDOTUyLjczMyw1MTUuNzM1IDk1MC4zMjgyLDUxMC41NTA5IDk1MC40NDgzLDUxMC44MDk4ICIgZmlsbD0ibm9uZSIgaWQ9IlNlcnZpZG9yIGRlIEFwbGljYSYjMjMxOyYjMjI3O28tdG8tU2Vydmlkb3IgZGUgQmFuY28gZGUgRGFkb3MiIHN0eWxlPSJzdHJva2U6IzE4MTgxODtzdHJva2Utd2lkdGg6MS4wOyIvPjxwb2x5Z29uIGZpbGw9IiMxODE4MTgiIHBvaW50cz0iOTUyLjk3MzUsNTE2LjI1MjUsOTUyLjgxNDMsNTA2LjQwNSw5NTAuODY5Miw1MTEuNzE2OSw5NDUuNTU3Myw1MDkuNzcxOCw5NTIuOTczNSw1MTYuMjUyNSIgc3R5bGU9InN0cm9rZTojMTgxODE4O3N0cm9rZS13aWR0aDoxLjA7Ii8+PHRleHQgZmlsbD0iIzAwMDAwMCIgZm9udC1mYW1pbHk9InNhbnMtc2VyaWYiIGZvbnQtc2l6ZT0iMTMiIGxlbmd0aEFkanVzdD0ic3BhY2luZyIgdGV4dExlbmd0aD0iODkiIHg9IjkyNCIgeT0iNDI4LjY2MjMiPkNvbnN1bHRhcyBTUUw8L3RleHQ+PC9nPjwhLS1TUkM9W1ZMREJRaUQwM0R0eDVDQnhOMjJCR1p3RzFmQi1hajk1b0tBbkhKaW1kS2JkbmdQR1NmWklIR3lHVVc5Vmg5Z243VGpuS2gwTmFmd2Fmb1VEcVliMWwyQUpZckdSaWkzY1EyVDVXaUxGeVFyWi04bTBka2l1RkQ1czBuckY1eC05RTlaZWp2ck1mMXA0by1BR1BiOXhyNXBQbjBYNl9QQUQwTXRiSTNKUFlwYVpnT3o0RTJFTzJVZ0ItMFVvY05JT3doOTNPX3dKOFQ0TDFvRUVBTW5oUnFSem1HVTNnb3hoQ180TW5wRkgzZ0VweU1GeFZISWZwZDh5dEo2ZzlGMlViYUZ3eFFKZVM4a01hVHFlaDZRdE9RUmZFRTJ1dUhndHRDMFo5Z202a01lVGN6RmVvNGJvc0ZTbFUzUkhUcFRKeks5QkliNi1iZ05zX0ZGTkExWDZQZFAzWTZTNlNwSkxNMG9nUFVuM0Y3U0wtZmNBWnlTdDVGZVBoUWk4bzVoWTVoOGZNS2hOT1h4eEpJSElQb2Q0Uy1OOEE3QWJ5RUx3ZmlCa2oxTEV2Mm96WGFVUjVMelNGSVdfYU84RlpjaHZScDJkNS1taV9FRzZYZDJ6Tmp5bm5fVUNoQkQxRDZ2VnJwY1JtVHBmV3Z5OHYwOTMtWWd3LTNuRkFsR2tnZ2VOakUwM2tiX3kwRzAwXS0tPjwvZz48L3N2Zz4=;" vertex="1" parent="1">
            <mxGeometry x="-1400" y="120" width="1021" height="866" as="geometry" />
          </mxCell>
        </UserObject>
      </root>
    </mxGraphModel>
  </diagram>
  <diagram id="Z1A0HxmXBBOBUzFdkGHr" name="Implantação">
    <mxGraphModel grid="1" page="1" gridSize="10" guides="1" tooltips="1" connect="1" arrows="1" fold="1" pageScale="1" pageWidth="827" pageHeight="1169" math="0" shadow="0">
      <root>
        <mxCell id="0" />
        <mxCell id="1" parent="0" />
        <UserObject label="" plantUmlData="{&#xa;  &quot;data&quot;: &quot;@startuml\nnode \&quot;Servidor Web\&quot; {\n  [Aplicação Web SGO]\n}\n\nnode \&quot;Servidor de Aplicação\&quot; {\n  [SGO Backend] --&gt; [SGO Banco de Dados]\n}\n\ndatabase \&quot;SGO Banco de Dados\&quot; {\n  [Competições]\n  [Atletas]\n  [Locais]\n  [Resultados]\n  [Medalhas]\n}\n\nnode \&quot;Servidor de Relatórios\&quot; {\n  [SGO Geração de Relatórios]\n}\n\nnode \&quot;Usuário\&quot; {\n  [Administrador]\n  [Atleta]\n}\n\n[Aplicação Web SGO] --&gt; [SGO Backend]\n[SGO Backend] --&gt; [Servidor de Relatórios]\n\n[Administrador] --&gt; [Aplicação Web SGO] : Gerencia Competições\n[Atleta] --&gt; [Aplicação Web SGO] : Inscreve-se nas Competições\n\n[SGO Backend] --&gt; [Competições]\n[SGO Backend] --&gt; [Atletas]\n[SGO Backend] --&gt; [Locais]\n[SGO Backend] --&gt; [Resultados]\n[SGO Backend] --&gt; [Medalhas]\n\n[Servidor de Relatórios] --&gt; [Medalhas] : Geração de Relatórios\n\n@enduml\n&quot;,&#xa;  &quot;format&quot;: &quot;svg&quot;&#xa;}" id="Nk9x3TT0ARAUyPge2lcG-5">
          <mxCell style="shape=image;noLabel=1;verticalAlign=top;aspect=fixed;imageAspect=0;image=data:image/svg+xml,PD94bWwgdmVyc2lvbj0iMS4wIiBlbmNvZGluZz0idXMtYXNjaWkiIHN0YW5kYWxvbmU9Im5vIj8+PHN2ZyB4bWxucz0iaHR0cDovL3d3dy53My5vcmcvMjAwMC9zdmciIHhtbG5zOnhsaW5rPSJodHRwOi8vd3d3LnczLm9yZy8xOTk5L3hsaW5rIiBjb250ZW50U3R5bGVUeXBlPSJ0ZXh0L2NzcyIgaGVpZ2h0PSI2NDRweCIgcHJlc2VydmVBc3BlY3RSYXRpbz0ibm9uZSIgc3R5bGU9IndpZHRoOjExMTVweDtoZWlnaHQ6NjQ0cHg7YmFja2dyb3VuZDojRkZGRkZGOyIgdmVyc2lvbj0iMS4xIiB2aWV3Qm94PSIwIDAgMTExNSA2NDQiIHdpZHRoPSIxMTE1cHgiIHpvb21BbmRQYW49Im1hZ25pZnkiPjxkZWZzLz48Zz48IS0tY2x1c3RlciBTZXJ2aWRvciBXZWItLT48ZyBpZD0iY2x1c3Rlcl9TZXJ2aWRvciBXZWIiPjxwb2x5Z29uIGZpbGw9Im5vbmUiIHBvaW50cz0iNTAxLDE2Miw1MTEsMTUyLDY5MSwxNTIsNjkxLDI0MSw2ODEsMjUxLDUwMSwyNTEsNTAxLDE2MiIgc3R5bGU9InN0cm9rZTojMTgxODE4O3N0cm9rZS13aWR0aDoxLjA7Ii8+PGxpbmUgc3R5bGU9InN0cm9rZTojMTgxODE4O3N0cm9rZS13aWR0aDoxLjA7IiB4MT0iNjgxIiB4Mj0iNjkxIiB5MT0iMTYyIiB5Mj0iMTUyIi8+PGxpbmUgc3R5bGU9InN0cm9rZTojMTgxODE4O3N0cm9rZS13aWR0aDoxLjA7IiB4MT0iNTAxIiB4Mj0iNjgxIiB5MT0iMTYyIiB5Mj0iMTYyIi8+PGxpbmUgc3R5bGU9InN0cm9rZTojMTgxODE4O3N0cm9rZS13aWR0aDoxLjA7IiB4MT0iNjgxIiB4Mj0iNjgxIiB5MT0iMTYyIiB5Mj0iMjUxIi8+PHRleHQgZmlsbD0iIzAwMDAwMCIgZm9udC1mYW1pbHk9InNhbnMtc2VyaWYiIGZvbnQtc2l6ZT0iMTQiIGZvbnQtd2VpZ2h0PSJib2xkIiBsZW5ndGhBZGp1c3Q9InNwYWNpbmciIHRleHRMZW5ndGg9Ijg0IiB4PSI1NTAiIHk9IjE3OC4yMzQ0Ij5TZXJ2aWRvciBXZWI8L3RleHQ+PC9nPjwhLS1jbHVzdGVyIFNlcnZpZG9yIGRlIEFwbGljYT8/by0tPjxnIGlkPSJjbHVzdGVyX1NlcnZpZG9yIGRlIEFwbGljYSYjMjMxOyYjMjI3O28iPjxwb2x5Z29uIGZpbGw9Im5vbmUiIHBvaW50cz0iMzMxLDMxMCwzNDEsMzAwLDEwOTgsMzAwLDEwOTgsNjE3LDEwODgsNjI3LDMzMSw2MjcsMzMxLDMxMCIgc3R5bGU9InN0cm9rZTojMTgxODE4O3N0cm9rZS13aWR0aDoxLjA7Ii8+PGxpbmUgc3R5bGU9InN0cm9rZTojMTgxODE4O3N0cm9rZS13aWR0aDoxLjA7IiB4MT0iMTA4OCIgeDI9IjEwOTgiIHkxPSIzMTAiIHkyPSIzMDAiLz48bGluZSBzdHlsZT0ic3Ryb2tlOiMxODE4MTg7c3Ryb2tlLXdpZHRoOjEuMDsiIHgxPSIzMzEiIHgyPSIxMDg4IiB5MT0iMzEwIiB5Mj0iMzEwIi8+PGxpbmUgc3R5bGU9InN0cm9rZTojMTgxODE4O3N0cm9rZS13aWR0aDoxLjA7IiB4MT0iMTA4OCIgeDI9IjEwODgiIHkxPSIzMTAiIHkyPSI2MjciLz48dGV4dCBmaWxsPSIjMDAwMDAwIiBmb250LWZhbWlseT0ic2Fucy1zZXJpZiIgZm9udC1zaXplPSIxNCIgZm9udC13ZWlnaHQ9ImJvbGQiIGxlbmd0aEFkanVzdD0ic3BhY2luZyIgdGV4dExlbmd0aD0iMTQ3IiB4PSI2MzciIHk9IjMyNi4yMzQ0Ij5TZXJ2aWRvciBkZSBBcGxpY2EmIzIzMTsmIzIyNztvPC90ZXh0PjwvZz48IS0tY2x1c3RlciBTR08gQmFuY28gZGUgRGFkb3MtLT48ZyBpZD0iY2x1c3Rlcl9TR08gQmFuY28gZGUgRGFkb3MiPjxwYXRoIGQ9Ik0zNjMsNDgwIEMzNjMsNDcwIDcxNC41LDQ3MCA3MTQuNSw0NzAgQzcxNC41LDQ3MCAxMDY2LDQ3MCAxMDY2LDQ4MCBMMTA2Niw1ODUgQzEwNjYsNTk1IDcxNC41LDU5NSA3MTQuNSw1OTUgQzcxNC41LDU5NSAzNjMsNTk1IDM2Myw1ODUgTDM2Myw0ODAgIiBmaWxsPSJub25lIiBzdHlsZT0ic3Ryb2tlOiMxODE4MTg7c3Ryb2tlLXdpZHRoOjEuMDsiLz48cGF0aCBkPSJNMzYzLDQ4MCBDMzYzLDQ5MCA3MTQuNSw0OTAgNzE0LjUsNDkwIEM3MTQuNSw0OTAgMTA2Niw0OTAgMTA2Niw0ODAgIiBmaWxsPSJub25lIiBzdHlsZT0ic3Ryb2tlOiMxODE4MTg7c3Ryb2tlLXdpZHRoOjEuMDsiLz48dGV4dCBmaWxsPSIjMDAwMDAwIiBmb250LWZhbWlseT0ic2Fucy1zZXJpZiIgZm9udC1zaXplPSIxNCIgZm9udC13ZWlnaHQ9ImJvbGQiIGxlbmd0aEFkanVzdD0ic3BhY2luZyIgdGV4dExlbmd0aD0iMTI2IiB4PSI2NTEuNSIgeT0iNTA1LjIzNDQiPlNHTyBCYW5jbyBkZSBEYWRvczwvdGV4dD48L2c+PCEtLWNsdXN0ZXIgU2Vydmlkb3IgZGUgUmVsYXQ/cmlvcy0tPjxnIGlkPSJjbHVzdGVyX1NlcnZpZG9yIGRlIFJlbGF0JiMyNDM7cmlvcyI+PHBvbHlnb24gZmlsbD0ibm9uZSIgcG9pbnRzPSIxNiwzMDIsMjYsMjkyLDI5OSwyOTIsMjk5LDM5NywyODksNDA3LDE2LDQwNywxNiwzMDIiIHN0eWxlPSJzdHJva2U6IzE4MTgxODtzdHJva2Utd2lkdGg6MS4wOyIvPjxsaW5lIHN0eWxlPSJzdHJva2U6IzE4MTgxODtzdHJva2Utd2lkdGg6MS4wOyIgeDE9IjI4OSIgeDI9IjI5OSIgeTE9IjMwMiIgeTI9IjI5MiIvPjxsaW5lIHN0eWxlPSJzdHJva2U6IzE4MTgxODtzdHJva2Utd2lkdGg6MS4wOyIgeDE9IjE2IiB4Mj0iMjg5IiB5MT0iMzAyIiB5Mj0iMzAyIi8+PGxpbmUgc3R5bGU9InN0cm9rZTojMTgxODE4O3N0cm9rZS13aWR0aDoxLjA7IiB4MT0iMjg5IiB4Mj0iMjg5IiB5MT0iMzAyIiB5Mj0iNDA3Ii8+PHRleHQgZmlsbD0iIzAwMDAwMCIgZm9udC1mYW1pbHk9InNhbnMtc2VyaWYiIGZvbnQtc2l6ZT0iMTQiIGZvbnQtd2VpZ2h0PSJib2xkIiBsZW5ndGhBZGp1c3Q9InNwYWNpbmciIHRleHRMZW5ndGg9IjE1NCIgeD0iNzYuNSIgeT0iMzE4LjIzNDQiPlNlcnZpZG9yIGRlIFJlbGF0JiMyNDM7cmlvczwvdGV4dD48L2c+PCEtLWNsdXN0ZXIgVXN1P3Jpby0tPjxnIGlkPSJjbHVzdGVyX1VzdSYjMjI1O3JpbyI+PHBvbHlnb24gZmlsbD0ibm9uZSIgcG9pbnRzPSI0NDMsMTYsNDUzLDYsNzI0LDYsNzI0LDk1LDcxNCwxMDUsNDQzLDEwNSw0NDMsMTYiIHN0eWxlPSJzdHJva2U6IzE4MTgxODtzdHJva2Utd2lkdGg6MS4wOyIvPjxsaW5lIHN0eWxlPSJzdHJva2U6IzE4MTgxODtzdHJva2Utd2lkdGg6MS4wOyIgeDE9IjcxNCIgeDI9IjcyNCIgeTE9IjE2IiB5Mj0iNiIvPjxsaW5lIHN0eWxlPSJzdHJva2U6IzE4MTgxODtzdHJva2Utd2lkdGg6MS4wOyIgeDE9IjQ0MyIgeDI9IjcxNCIgeTE9IjE2IiB5Mj0iMTYiLz48bGluZSBzdHlsZT0ic3Ryb2tlOiMxODE4MTg7c3Ryb2tlLXdpZHRoOjEuMDsiIHgxPSI3MTQiIHgyPSI3MTQiIHkxPSIxNiIgeTI9IjEwNSIvPjx0ZXh0IGZpbGw9IiMwMDAwMDAiIGZvbnQtZmFtaWx5PSJzYW5zLXNlcmlmIiBmb250LXNpemU9IjE0IiBmb250LXdlaWdodD0iYm9sZCIgbGVuZ3RoQWRqdXN0PSJzcGFjaW5nIiB0ZXh0TGVuZ3RoPSI0OSIgeD0iNTU1IiB5PSIzMi4yMzQ0Ij5Vc3UmIzIyNTtyaW88L3RleHQ+PC9nPjwhLS1lbnRpdHkgQXBsaWNhPz9vIFdlYiBTR08tLT48ZyBpZD0iZWxlbV9BcGxpY2EmIzIzMTsmIzIyNztvIFdlYiBTR08iPjxyZWN0IGZpbGw9IiNGMUYxRjEiIGhlaWdodD0iNDQuOTg0NCIgcng9IjIuNSIgcnk9IjIuNSIgc3R5bGU9InN0cm9rZTojMTgxODE4O3N0cm9rZS13aWR0aDowLjU7IiB3aWR0aD0iMTU5IiB4PSI1MTYuNSIgeT0iMTkwIi8+PHJlY3QgZmlsbD0iI0YxRjFGMSIgaGVpZ2h0PSIxMCIgc3R5bGU9InN0cm9rZTojMTgxODE4O3N0cm9rZS13aWR0aDowLjU7IiB3aWR0aD0iMTUiIHg9IjY1NS41IiB5PSIxOTUiLz48cmVjdCBmaWxsPSIjRjFGMUYxIiBoZWlnaHQ9IjIiIHN0eWxlPSJzdHJva2U6IzE4MTgxODtzdHJva2Utd2lkdGg6MC41OyIgd2lkdGg9IjQiIHg9IjY1My41IiB5PSIxOTciLz48cmVjdCBmaWxsPSIjRjFGMUYxIiBoZWlnaHQ9IjIiIHN0eWxlPSJzdHJva2U6IzE4MTgxODtzdHJva2Utd2lkdGg6MC41OyIgd2lkdGg9IjQiIHg9IjY1My41IiB5PSIyMDEiLz48dGV4dCBmaWxsPSIjMDAwMDAwIiBmb250LWZhbWlseT0ic2Fucy1zZXJpZiIgZm9udC1zaXplPSIxNCIgbGVuZ3RoQWRqdXN0PSJzcGFjaW5nIiB0ZXh0TGVuZ3RoPSIxMTkiIHg9IjUzMS41IiB5PSIyMjMuMjM0NCI+QXBsaWNhJiMyMzE7JiMyMjc7byBXZWIgU0dPPC90ZXh0PjwvZz48IS0tZW50aXR5IFNHTyBCYWNrZW5kLS0+PGcgaWQ9ImVsZW1fU0dPIEJhY2tlbmQiPjxyZWN0IGZpbGw9IiNGMUYxRjEiIGhlaWdodD0iNDQuOTg0NCIgcng9IjIuNSIgcnk9IjIuNSIgc3R5bGU9InN0cm9rZTojMTgxODE4O3N0cm9rZS13aWR0aDowLjU7IiB3aWR0aD0iMTE3IiB4PSI1MzcuNSIgeT0iMzM4Ii8+PHJlY3QgZmlsbD0iI0YxRjFGMSIgaGVpZ2h0PSIxMCIgc3R5bGU9InN0cm9rZTojMTgxODE4O3N0cm9rZS13aWR0aDowLjU7IiB3aWR0aD0iMTUiIHg9IjYzNC41IiB5PSIzNDMiLz48cmVjdCBmaWxsPSIjRjFGMUYxIiBoZWlnaHQ9IjIiIHN0eWxlPSJzdHJva2U6IzE4MTgxODtzdHJva2Utd2lkdGg6MC41OyIgd2lkdGg9IjQiIHg9IjYzMi41IiB5PSIzNDUiLz48cmVjdCBmaWxsPSIjRjFGMUYxIiBoZWlnaHQ9IjIiIHN0eWxlPSJzdHJva2U6IzE4MTgxODtzdHJva2Utd2lkdGg6MC41OyIgd2lkdGg9IjQiIHg9IjYzMi41IiB5PSIzNDkiLz48dGV4dCBmaWxsPSIjMDAwMDAwIiBmb250LWZhbWlseT0ic2Fucy1zZXJpZiIgZm9udC1zaXplPSIxNCIgbGVuZ3RoQWRqdXN0PSJzcGFjaW5nIiB0ZXh0TGVuZ3RoPSI3NyIgeD0iNTUyLjUiIHk9IjM3MS4yMzQ0Ij5TR08gQmFja2VuZDwvdGV4dD48L2c+PCEtLWVudGl0eSBDb21wZXRpPz9lcy0tPjxnIGlkPSJlbGVtX0NvbXBldGkmIzIzMTsmIzI0NTtlcyI+PHJlY3QgZmlsbD0iI0YxRjFGMSIgaGVpZ2h0PSI0NC45ODQ0IiByeD0iMi41IiByeT0iMi41IiBzdHlsZT0ic3Ryb2tlOiMxODE4MTg7c3Ryb2tlLXdpZHRoOjAuNTsiIHdpZHRoPSIxMTgiIHg9IjUzNyIgeT0iNTI2Ii8+PHJlY3QgZmlsbD0iI0YxRjFGMSIgaGVpZ2h0PSIxMCIgc3R5bGU9InN0cm9rZTojMTgxODE4O3N0cm9rZS13aWR0aDowLjU7IiB3aWR0aD0iMTUiIHg9IjYzNSIgeT0iNTMxIi8+PHJlY3QgZmlsbD0iI0YxRjFGMSIgaGVpZ2h0PSIyIiBzdHlsZT0ic3Ryb2tlOiMxODE4MTg7c3Ryb2tlLXdpZHRoOjAuNTsiIHdpZHRoPSI0IiB4PSI2MzMiIHk9IjUzMyIvPjxyZWN0IGZpbGw9IiNGMUYxRjEiIGhlaWdodD0iMiIgc3R5bGU9InN0cm9rZTojMTgxODE4O3N0cm9rZS13aWR0aDowLjU7IiB3aWR0aD0iNCIgeD0iNjMzIiB5PSI1MzciLz48dGV4dCBmaWxsPSIjMDAwMDAwIiBmb250LWZhbWlseT0ic2Fucy1zZXJpZiIgZm9udC1zaXplPSIxNCIgbGVuZ3RoQWRqdXN0PSJzcGFjaW5nIiB0ZXh0TGVuZ3RoPSI3OCIgeD0iNTUyIiB5PSI1NTkuMjM0NCI+Q29tcGV0aSYjMjMxOyYjMjQ1O2VzPC90ZXh0PjwvZz48IS0tZW50aXR5IEF0bGV0YXMtLT48ZyBpZD0iZWxlbV9BdGxldGFzIj48cmVjdCBmaWxsPSIjRjFGMUYxIiBoZWlnaHQ9IjQ0Ljk4NDQiIHJ4PSIyLjUiIHJ5PSIyLjUiIHN0eWxlPSJzdHJva2U6IzE4MTgxODtzdHJva2Utd2lkdGg6MC41OyIgd2lkdGg9Ijg5IiB4PSI2OTAuNSIgeT0iNTI2Ii8+PHJlY3QgZmlsbD0iI0YxRjFGMSIgaGVpZ2h0PSIxMCIgc3R5bGU9InN0cm9rZTojMTgxODE4O3N0cm9rZS13aWR0aDowLjU7IiB3aWR0aD0iMTUiIHg9Ijc1OS41IiB5PSI1MzEiLz48cmVjdCBmaWxsPSIjRjFGMUYxIiBoZWlnaHQ9IjIiIHN0eWxlPSJzdHJva2U6IzE4MTgxODtzdHJva2Utd2lkdGg6MC41OyIgd2lkdGg9IjQiIHg9Ijc1Ny41IiB5PSI1MzMiLz48cmVjdCBmaWxsPSIjRjFGMUYxIiBoZWlnaHQ9IjIiIHN0eWxlPSJzdHJva2U6IzE4MTgxODtzdHJva2Utd2lkdGg6MC41OyIgd2lkdGg9IjQiIHg9Ijc1Ny41IiB5PSI1MzciLz48dGV4dCBmaWxsPSIjMDAwMDAwIiBmb250LWZhbWlseT0ic2Fucy1zZXJpZiIgZm9udC1zaXplPSIxNCIgbGVuZ3RoQWRqdXN0PSJzcGFjaW5nIiB0ZXh0TGVuZ3RoPSI0OSIgeD0iNzA1LjUiIHk9IjU1OS4yMzQ0Ij5BdGxldGFzPC90ZXh0PjwvZz48IS0tZW50aXR5IExvY2Fpcy0tPjxnIGlkPSJlbGVtX0xvY2FpcyI+PHJlY3QgZmlsbD0iI0YxRjFGMSIgaGVpZ2h0PSI0NC45ODQ0IiByeD0iMi41IiByeT0iMi41IiBzdHlsZT0ic3Ryb2tlOiMxODE4MTg7c3Ryb2tlLXdpZHRoOjAuNTsiIHdpZHRoPSI4MiIgeD0iODE1IiB5PSI1MjYiLz48cmVjdCBmaWxsPSIjRjFGMUYxIiBoZWlnaHQ9IjEwIiBzdHlsZT0ic3Ryb2tlOiMxODE4MTg7c3Ryb2tlLXdpZHRoOjAuNTsiIHdpZHRoPSIxNSIgeD0iODc3IiB5PSI1MzEiLz48cmVjdCBmaWxsPSIjRjFGMUYxIiBoZWlnaHQ9IjIiIHN0eWxlPSJzdHJva2U6IzE4MTgxODtzdHJva2Utd2lkdGg6MC41OyIgd2lkdGg9IjQiIHg9Ijg3NSIgeT0iNTMzIi8+PHJlY3QgZmlsbD0iI0YxRjFGMSIgaGVpZ2h0PSIyIiBzdHlsZT0ic3Ryb2tlOiMxODE4MTg7c3Ryb2tlLXdpZHRoOjAuNTsiIHdpZHRoPSI0IiB4PSI4NzUiIHk9IjUzNyIvPjx0ZXh0IGZpbGw9IiMwMDAwMDAiIGZvbnQtZmFtaWx5PSJzYW5zLXNlcmlmIiBmb250LXNpemU9IjE0IiBsZW5ndGhBZGp1c3Q9InNwYWNpbmciIHRleHRMZW5ndGg9IjQyIiB4PSI4MzAiIHk9IjU1OS4yMzQ0Ij5Mb2NhaXM8L3RleHQ+PC9nPjwhLS1lbnRpdHkgUmVzdWx0YWRvcy0tPjxnIGlkPSJlbGVtX1Jlc3VsdGFkb3MiPjxyZWN0IGZpbGw9IiNGMUYxRjEiIGhlaWdodD0iNDQuOTg0NCIgcng9IjIuNSIgcnk9IjIuNSIgc3R5bGU9InN0cm9rZTojMTgxODE4O3N0cm9rZS13aWR0aDowLjU7IiB3aWR0aD0iMTEwIiB4PSI5MzIiIHk9IjUyNiIvPjxyZWN0IGZpbGw9IiNGMUYxRjEiIGhlaWdodD0iMTAiIHN0eWxlPSJzdHJva2U6IzE4MTgxODtzdHJva2Utd2lkdGg6MC41OyIgd2lkdGg9IjE1IiB4PSIxMDIyIiB5PSI1MzEiLz48cmVjdCBmaWxsPSIjRjFGMUYxIiBoZWlnaHQ9IjIiIHN0eWxlPSJzdHJva2U6IzE4MTgxODtzdHJva2Utd2lkdGg6MC41OyIgd2lkdGg9IjQiIHg9IjEwMjAiIHk9IjUzMyIvPjxyZWN0IGZpbGw9IiNGMUYxRjEiIGhlaWdodD0iMiIgc3R5bGU9InN0cm9rZTojMTgxODE4O3N0cm9rZS13aWR0aDowLjU7IiB3aWR0aD0iNCIgeD0iMTAyMCIgeT0iNTM3Ii8+PHRleHQgZmlsbD0iIzAwMDAwMCIgZm9udC1mYW1pbHk9InNhbnMtc2VyaWYiIGZvbnQtc2l6ZT0iMTQiIGxlbmd0aEFkanVzdD0ic3BhY2luZyIgdGV4dExlbmd0aD0iNzAiIHg9Ijk0NyIgeT0iNTU5LjIzNDQiPlJlc3VsdGFkb3M8L3RleHQ+PC9nPjwhLS1lbnRpdHkgTWVkYWxoYXMtLT48ZyBpZD0iZWxlbV9NZWRhbGhhcyI+PHJlY3QgZmlsbD0iI0YxRjFGMSIgaGVpZ2h0PSI0NC45ODQ0IiByeD0iMi41IiByeT0iMi41IiBzdHlsZT0ic3Ryb2tlOiMxODE4MTg7c3Ryb2tlLXdpZHRoOjAuNTsiIHdpZHRoPSI5NiIgeD0iNDA2IiB5PSI1MjYiLz48cmVjdCBmaWxsPSIjRjFGMUYxIiBoZWlnaHQ9IjEwIiBzdHlsZT0ic3Ryb2tlOiMxODE4MTg7c3Ryb2tlLXdpZHRoOjAuNTsiIHdpZHRoPSIxNSIgeD0iNDgyIiB5PSI1MzEiLz48cmVjdCBmaWxsPSIjRjFGMUYxIiBoZWlnaHQ9IjIiIHN0eWxlPSJzdHJva2U6IzE4MTgxODtzdHJva2Utd2lkdGg6MC41OyIgd2lkdGg9IjQiIHg9IjQ4MCIgeT0iNTMzIi8+PHJlY3QgZmlsbD0iI0YxRjFGMSIgaGVpZ2h0PSIyIiBzdHlsZT0ic3Ryb2tlOiMxODE4MTg7c3Ryb2tlLXdpZHRoOjAuNTsiIHdpZHRoPSI0IiB4PSI0ODAiIHk9IjUzNyIvPjx0ZXh0IGZpbGw9IiMwMDAwMDAiIGZvbnQtZmFtaWx5PSJzYW5zLXNlcmlmIiBmb250LXNpemU9IjE0IiBsZW5ndGhBZGp1c3Q9InNwYWNpbmciIHRleHRMZW5ndGg9IjU2IiB4PSI0MjEiIHk9IjU1OS4yMzQ0Ij5NZWRhbGhhczwvdGV4dD48L2c+PCEtLWVudGl0eSBTR08gR2VyYT8/byBkZSBSZWxhdD9yaW9zLS0+PGcgaWQ9ImVsZW1fU0dPIEdlcmEmIzIzMTsmIzIyNztvIGRlIFJlbGF0JiMyNDM7cmlvcyI+PHJlY3QgZmlsbD0iI0YxRjFGMSIgaGVpZ2h0PSI0NC45ODQ0IiByeD0iMi41IiByeT0iMi41IiBzdHlsZT0ic3Ryb2tlOiMxODE4MTg7c3Ryb2tlLXdpZHRoOjAuNTsiIHdpZHRoPSIyMTUiIHg9IjU5LjUiIHk9IjMzOCIvPjxyZWN0IGZpbGw9IiNGMUYxRjEiIGhlaWdodD0iMTAiIHN0eWxlPSJzdHJva2U6IzE4MTgxODtzdHJva2Utd2lkdGg6MC41OyIgd2lkdGg9IjE1IiB4PSIyNTQuNSIgeT0iMzQzIi8+PHJlY3QgZmlsbD0iI0YxRjFGMSIgaGVpZ2h0PSIyIiBzdHlsZT0ic3Ryb2tlOiMxODE4MTg7c3Ryb2tlLXdpZHRoOjAuNTsiIHdpZHRoPSI0IiB4PSIyNTIuNSIgeT0iMzQ1Ii8+PHJlY3QgZmlsbD0iI0YxRjFGMSIgaGVpZ2h0PSIyIiBzdHlsZT0ic3Ryb2tlOiMxODE4MTg7c3Ryb2tlLXdpZHRoOjAuNTsiIHdpZHRoPSI0IiB4PSIyNTIuNSIgeT0iMzQ5Ii8+PHRleHQgZmlsbD0iIzAwMDAwMCIgZm9udC1mYW1pbHk9InNhbnMtc2VyaWYiIGZvbnQtc2l6ZT0iMTQiIGxlbmd0aEFkanVzdD0ic3BhY2luZyIgdGV4dExlbmd0aD0iMTc1IiB4PSI3NC41IiB5PSIzNzEuMjM0NCI+U0dPIEdlcmEmIzIzMTsmIzIyNztvIGRlIFJlbGF0JiMyNDM7cmlvczwvdGV4dD48L2c+PCEtLWVudGl0eSBBZG1pbmlzdHJhZG9yLS0+PGcgaWQ9ImVsZW1fQWRtaW5pc3RyYWRvciI+PHJlY3QgZmlsbD0iI0YxRjFGMSIgaGVpZ2h0PSI0NC45ODQ0IiByeD0iMi41IiByeT0iMi41IiBzdHlsZT0ic3Ryb2tlOiMxODE4MTg7c3Ryb2tlLXdpZHRoOjAuNTsiIHdpZHRoPSIxMzIiIHg9IjQ1OSIgeT0iNDQiLz48cmVjdCBmaWxsPSIjRjFGMUYxIiBoZWlnaHQ9IjEwIiBzdHlsZT0ic3Ryb2tlOiMxODE4MTg7c3Ryb2tlLXdpZHRoOjAuNTsiIHdpZHRoPSIxNSIgeD0iNTcxIiB5PSI0OSIvPjxyZWN0IGZpbGw9IiNGMUYxRjEiIGhlaWdodD0iMiIgc3R5bGU9InN0cm9rZTojMTgxODE4O3N0cm9rZS13aWR0aDowLjU7IiB3aWR0aD0iNCIgeD0iNTY5IiB5PSI1MSIvPjxyZWN0IGZpbGw9IiNGMUYxRjEiIGhlaWdodD0iMiIgc3R5bGU9InN0cm9rZTojMTgxODE4O3N0cm9rZS13aWR0aDowLjU7IiB3aWR0aD0iNCIgeD0iNTY5IiB5PSI1NSIvPjx0ZXh0IGZpbGw9IiMwMDAwMDAiIGZvbnQtZmFtaWx5PSJzYW5zLXNlcmlmIiBmb250LXNpemU9IjE0IiBsZW5ndGhBZGp1c3Q9InNwYWNpbmciIHRleHRMZW5ndGg9IjkyIiB4PSI0NzQiIHk9Ijc3LjIzNDQiPkFkbWluaXN0cmFkb3I8L3RleHQ+PC9nPjwhLS1lbnRpdHkgQXRsZXRhLS0+PGcgaWQ9ImVsZW1fQXRsZXRhIj48cmVjdCBmaWxsPSIjRjFGMUYxIiBoZWlnaHQ9IjQ0Ljk4NDQiIHJ4PSIyLjUiIHJ5PSIyLjUiIHN0eWxlPSJzdHJva2U6IzE4MTgxODtzdHJva2Utd2lkdGg6MC41OyIgd2lkdGg9IjgyIiB4PSI2MjYiIHk9IjQ0Ii8+PHJlY3QgZmlsbD0iI0YxRjFGMSIgaGVpZ2h0PSIxMCIgc3R5bGU9InN0cm9rZTojMTgxODE4O3N0cm9rZS13aWR0aDowLjU7IiB3aWR0aD0iMTUiIHg9IjY4OCIgeT0iNDkiLz48cmVjdCBmaWxsPSIjRjFGMUYxIiBoZWlnaHQ9IjIiIHN0eWxlPSJzdHJva2U6IzE4MTgxODtzdHJva2Utd2lkdGg6MC41OyIgd2lkdGg9IjQiIHg9IjY4NiIgeT0iNTEiLz48cmVjdCBmaWxsPSIjRjFGMUYxIiBoZWlnaHQ9IjIiIHN0eWxlPSJzdHJva2U6IzE4MTgxODtzdHJva2Utd2lkdGg6MC41OyIgd2lkdGg9IjQiIHg9IjY4NiIgeT0iNTUiLz48dGV4dCBmaWxsPSIjMDAwMDAwIiBmb250LWZhbWlseT0ic2Fucy1zZXJpZiIgZm9udC1zaXplPSIxNCIgbGVuZ3RoQWRqdXN0PSJzcGFjaW5nIiB0ZXh0TGVuZ3RoPSI0MiIgeD0iNjQxIiB5PSI3Ny4yMzQ0Ij5BdGxldGE8L3RleHQ+PC9nPjwhLS1saW5rIFNHTyBCYWNrZW5kIHRvIFNHTyBCYW5jbyBkZSBEYWRvcy0tPjxnIGlkPSJsaW5rX1NHTyBCYWNrZW5kX1NHTyBCYW5jbyBkZSBEYWRvcyI+PHBhdGggZD0iTTUzNy4yNCwzNzIuNTYgQzQ5MC4yOCwzODQuNTMgNDI2LjQ5LDQwOC4zOCAzOTAsNDU0IEMzODYuNzQxMyw0NTguMDc1IDM4My45OTY3LDQ2Mi41NjI4IDM4MS42ODkyLDQ2Ny4zMDAyIEMzODEuNDAwOCw0NjcuODkyMyAzODEuMTE5MSw0NjguNDg4NCAzODAuODQ0Miw0NjkuMDg4IEMzODAuNzA2Nyw0NjkuMzg3OSAzODMuMDA5NSw0NjQuMjA2NSAzODIuODc1NCw0NjQuNTA4MSAiIGZpbGw9Im5vbmUiIGlkPSJTR08gQmFja2VuZC10by1TR08gQmFuY28gZGUgRGFkb3MiIHN0eWxlPSJzdHJva2U6IzE4MTgxODtzdHJva2Utd2lkdGg6MS4wOyIvPjxwb2x5Z29uIGZpbGw9IiMxODE4MTgiIHBvaW50cz0iMzgwLjQzNjgsNDY5Ljk5MDIsMzg3Ljc0OTQsNDYzLjM5MjcsMzgyLjQ2ODksNDY1LjQyMTcsMzgwLjQzOTksNDYwLjE0MTMsMzgwLjQzNjgsNDY5Ljk5MDIiIHN0eWxlPSJzdHJva2U6IzE4MTgxODtzdHJva2Utd2lkdGg6MS4wOyIvPjwvZz48IS0tbGluayBBcGxpY2E/P28gV2ViIFNHTyB0byBTR08gQmFja2VuZC0tPjxnIGlkPSJsaW5rX0FwbGljYSYjMjMxOyYjMjI3O28gV2ViIFNHT19TR08gQmFja2VuZCI+PHBhdGggZD0iTTU5NiwyMzUuMDQgQzU5NiwyNjIuNjUgNTk2LDMwNC4yMiA1OTYsMzMxLjg3ICIgZmlsbD0ibm9uZSIgaWQ9IkFwbGljYSYjMjMxOyYjMjI3O28gV2ViIFNHTy10by1TR08gQmFja2VuZCIgc3R5bGU9InN0cm9rZTojMTgxODE4O3N0cm9rZS13aWR0aDoxLjA7Ii8+PHBvbHlnb24gZmlsbD0iIzE4MTgxOCIgcG9pbnRzPSI1OTYsMzM3Ljg3LDYwMCwzMjguODcsNTk2LDMzMi44Nyw1OTIsMzI4Ljg3LDU5NiwzMzcuODciIHN0eWxlPSJzdHJva2U6IzE4MTgxODtzdHJva2Utd2lkdGg6MS4wOyIvPjwvZz48IS0tbGluayBTR08gQmFja2VuZCB0byBTZXJ2aWRvciBkZSBSZWxhdD9yaW9zLS0+PGcgaWQ9ImxpbmtfU0dPIEJhY2tlbmRfU2Vydmlkb3IgZGUgUmVsYXQmIzI0MztyaW9zIj48cGF0aCBkPSJNNTM3LjM1LDMzOC4xOCBDNDczLjU0LDMxNS4xNyAzNjcuOTgsMjgwLjg1IDI3My41LDI2Ny41IEMyMjYuNjMsMjYwLjg4IDEwNi42MywyNTYuODkgNjAuNSwyNjcuNSBDNTIuMDcsMjY5LjQ0IDQ4LjM3LDI2OS4yMiA0MywyNzYgQzQwLjE5ODgsMjc5LjUzNjMgMzcuNzkzMSwyODMuNDA0MSAzNS43Mjg5LDI4Ny40NzcyIEMzNS4yMTI4LDI4OC40OTU0IDM0LjcxODEsMjg5LjUyNjYgMzQuMjQzOCwyOTAuNTY4NSBDMzQuMTI1MywyOTAuODI5IDM0LjAwOCwyOTEuMDkwMiAzMy44OTIsMjkxLjM1MiBDMzMuODM0LDI5MS40ODI5IDM2LjE3OTksMjg2LjExNjQgMzYuMTIyNSwyODYuMjQ3NyAiIGZpbGw9Im5vbmUiIGlkPSJTR08gQmFja2VuZC10by1TZXJ2aWRvciBkZSBSZWxhdCYjMjQzO3Jpb3MiIHN0eWxlPSJzdHJva2U6IzE4MTgxODtzdHJva2Utd2lkdGg6MS4wOyIvPjxwb2x5Z29uIGZpbGw9IiMxODE4MTgiIHBvaW50cz0iMzMuNzE4OSwyOTEuNzQ1Miw0MC45ODkzLDI4NS4xMDEzLDM1LjcyMTksMjg3LjE2MzksMzMuNjU5MiwyODEuODk2NSwzMy43MTg5LDI5MS43NDUyIiBzdHlsZT0ic3Ryb2tlOiMxODE4MTg7c3Ryb2tlLXdpZHRoOjEuMDsiLz48L2c+PCEtLWxpbmsgQWRtaW5pc3RyYWRvciB0byBBcGxpY2E/P28gV2ViIFNHTy0tPjxnIGlkPSJsaW5rX0FkbWluaXN0cmFkb3JfQXBsaWNhJiMyMzE7JiMyMjc7byBXZWIgU0dPIj48cGF0aCBkPSJNNTEwLjM4LDg5LjA4IEM1MDIuOTYsMTAyLjg3IDQ5Ni44NywxMjAuOTMgNTA0LDEzNiBDNTE0Ljc4LDE1OC43OSA1MzEuMTcxNSwxNzMuNjk2MiA1NTAuNjIxNSwxODYuNTI2MiAiIGZpbGw9Im5vbmUiIGlkPSJBZG1pbmlzdHJhZG9yLXRvLUFwbGljYSYjMjMxOyYjMjI3O28gV2ViIFNHTyIgc3R5bGU9InN0cm9rZTojMTgxODE4O3N0cm9rZS13aWR0aDoxLjA7Ii8+PHBvbHlnb24gZmlsbD0iIzE4MTgxOCIgcG9pbnRzPSI1NTUuNjMsMTg5LjgzLDU1MC4zMTk4LDE4MS41MzUzLDU1MS40NTYzLDE4Ny4wNzY4LDU0NS45MTQ3LDE4OC4yMTMzLDU1NS42MywxODkuODMiIHN0eWxlPSJzdHJva2U6IzE4MTgxODtzdHJva2Utd2lkdGg6MS4wOyIvPjx0ZXh0IGZpbGw9IiMwMDAwMDAiIGZvbnQtZmFtaWx5PSJzYW5zLXNlcmlmIiBmb250LXNpemU9IjEzIiBsZW5ndGhBZGp1c3Q9InNwYWNpbmciIHRleHRMZW5ndGg9IjEzNiIgeD0iNTA1IiB5PSIxMzQuMjg5MSI+R2VyZW5jaWEgQ29tcGV0aSYjMjMxOyYjMjQ1O2VzPC90ZXh0PjwvZz48IS0tbGluayBBdGxldGEgdG8gQXBsaWNhPz9vIFdlYiBTR08tLT48ZyBpZD0ibGlua19BdGxldGFfQXBsaWNhJiMyMzE7JiMyMjc7byBXZWIgU0dPIj48cGF0aCBkPSJNNjYyLjA5LDg5LjA3IEM2NTguNTQsMTAyLjg3IDY1My4xMiwxMjAuOTMgNjQ2LDEzNiBDNjM2Ljk0LDE1NS4xOSA2MjcuMDcwNywxNzAuMjk2MSA2MTYuNDIwNywxODQuODY2MSAiIGZpbGw9Im5vbmUiIGlkPSJBdGxldGEtdG8tQXBsaWNhJiMyMzE7JiMyMjc7byBXZWIgU0dPIiBzdHlsZT0ic3Ryb2tlOiMxODE4MTg7c3Ryb2tlLXdpZHRoOjEuMDsiLz48cG9seWdvbiBmaWxsPSIjMTgxODE4IiBwb2ludHM9IjYxMi44OCwxODkuNzEsNjIxLjQyMDMsMTg0LjgwNDYsNjE1LjgzMDYsMTg1LjY3MzQsNjE0Ljk2MTcsMTgwLjA4MzcsNjEyLjg4LDE4OS43MSIgc3R5bGU9InN0cm9rZTojMTgxODE4O3N0cm9rZS13aWR0aDoxLjA7Ii8+PHRleHQgZmlsbD0iIzAwMDAwMCIgZm9udC1mYW1pbHk9InNhbnMtc2VyaWYiIGZvbnQtc2l6ZT0iMTMiIGxlbmd0aEFkanVzdD0ic3BhY2luZyIgdGV4dExlbmd0aD0iMTg1IiB4PSI2NTMiIHk9IjEzNC4yODkxIj5JbnNjcmV2ZS1zZSBuYXMgQ29tcGV0aSYjMjMxOyYjMjQ1O2VzPC90ZXh0PjwvZz48IS0tbGluayBTR08gQmFja2VuZCB0byBDb21wZXRpPz9lcy0tPjxnIGlkPSJsaW5rX1NHTyBCYWNrZW5kX0NvbXBldGkmIzIzMTsmIzI0NTtlcyI+PHBhdGggZD0iTTU5NiwzODMuMiBDNTk2LDQxOS4wNCA1OTYsNDg0LjE5IDU5Niw1MTkuOTQgIiBmaWxsPSJub25lIiBpZD0iU0dPIEJhY2tlbmQtdG8tQ29tcGV0aSYjMjMxOyYjMjQ1O2VzIiBzdHlsZT0ic3Ryb2tlOiMxODE4MTg7c3Ryb2tlLXdpZHRoOjEuMDsiLz48cG9seWdvbiBmaWxsPSIjMTgxODE4IiBwb2ludHM9IjU5Niw1MjUuOTQsNjAwLDUxNi45NCw1OTYsNTIwLjk0LDU5Miw1MTYuOTQsNTk2LDUyNS45NCIgc3R5bGU9InN0cm9rZTojMTgxODE4O3N0cm9rZS13aWR0aDoxLjA7Ii8+PC9nPjwhLS1saW5rIFNHTyBCYWNrZW5kIHRvIEF0bGV0YXMtLT48ZyBpZD0ibGlua19TR08gQmFja2VuZF9BdGxldGFzIj48cGF0aCBkPSJNNjE1LjA1LDM4My4wMSBDNjMxLjA3LDQwMS40MiA2NTQuMjksNDI4Ljg2IDY3Myw0NTQgQzY5MC43OSw0NzcuOSA3MDYuMjU3NSw1MDEuNTU2MSA3MTguNDA3NSw1MjAuODA2MSAiIGZpbGw9Im5vbmUiIGlkPSJTR08gQmFja2VuZC10by1BdGxldGFzIiBzdHlsZT0ic3Ryb2tlOiMxODE4MTg7c3Ryb2tlLXdpZHRoOjEuMDsiLz48cG9seWdvbiBmaWxsPSIjMTgxODE4IiBwb2ludHM9IjcyMS42MSw1MjUuODgsNzIwLjE4ODksNTE2LjEzNDIsNzE4Ljk0MTMsNTIxLjY1MTgsNzEzLjQyMzcsNTIwLjQwNDIsNzIxLjYxLDUyNS44OCIgc3R5bGU9InN0cm9rZTojMTgxODE4O3N0cm9rZS13aWR0aDoxLjA7Ii8+PC9nPjwhLS1saW5rIFNHTyBCYWNrZW5kIHRvIExvY2Fpcy0tPjxnIGlkPSJsaW5rX1NHTyBCYWNrZW5kX0xvY2FpcyI+PHBhdGggZD0iTTY1NC43NywzNzguNSBDNjk3LjgxLDM5My4xOCA3NTUuNjksNDE3LjggNzk3LDQ1NCBDODE5LjgxLDQ3My45OSA4MzQuMzg0MSw0OTkuNDkxNiA4NDQuMTU0MSw1MjAuMjQxNiAiIGZpbGw9Im5vbmUiIGlkPSJTR08gQmFja2VuZC10by1Mb2NhaXMiIHN0eWxlPSJzdHJva2U6IzE4MTgxODtzdHJva2Utd2lkdGg6MS4wOyIvPjxwb2x5Z29uIGZpbGw9IiMxODE4MTgiIHBvaW50cz0iODQ2LjcxLDUyNS42Nyw4NDYuNDk1LDUxNS44MjM1LDg0NC41ODAxLDUyMS4xNDY0LDgzOS4yNTcyLDUxOS4yMzE0LDg0Ni43MSw1MjUuNjciIHN0eWxlPSJzdHJva2U6IzE4MTgxODtzdHJva2Utd2lkdGg6MS4wOyIvPjwvZz48IS0tbGluayBTR08gQmFja2VuZCB0byBSZXN1bHRhZG9zLS0+PGcgaWQ9ImxpbmtfU0dPIEJhY2tlbmRfUmVzdWx0YWRvcyI+PHBhdGggZD0iTTY1NC43OSwzNjcuNDMgQzcyMi41OSwzNzYuNjUgODM0Ljk2LDM5OS40MyA5MTUsNDU0IEM5NDIuMDgsNDcyLjQ3IDk2MC40NjIxLDQ5OS4xNjExIDk3Mi42NjIxLDUyMC41MDExICIgZmlsbD0ibm9uZSIgaWQ9IlNHTyBCYWNrZW5kLXRvLVJlc3VsdGFkb3MiIHN0eWxlPSJzdHJva2U6IzE4MTgxODtzdHJva2Utd2lkdGg6MS4wOyIvPjxwb2x5Z29uIGZpbGw9IiMxODE4MTgiIHBvaW50cz0iOTc1LjY0LDUyNS43MSw5NzQuNjQ1Nyw1MTUuOTExNSw5NzMuMTU4NCw1MjEuMzY5Myw5NjcuNzAwNiw1MTkuODgyLDk3NS42NCw1MjUuNzEiIHN0eWxlPSJzdHJva2U6IzE4MTgxODtzdHJva2Utd2lkdGg6MS4wOyIvPjwvZz48IS0tbGluayBTR08gQmFja2VuZCB0byBNZWRhbGhhcy0tPjxnIGlkPSJsaW5rX1NHTyBCYWNrZW5kX01lZGFsaGFzIj48cGF0aCBkPSJNNTc3LjQyLDM4My4xOSBDNTYxLjc0LDQwMS43MSA1MzguOSw0MjkuMiA1MjAsNDU0IEM1MDEuNjksNDc4LjAyIDQ4NS4yNDY0LDUwMS41MjcgNDcyLjE0NjQsNTIwLjY4NyAiIGZpbGw9Im5vbmUiIGlkPSJTR08gQmFja2VuZC10by1NZWRhbGhhcyIgc3R5bGU9InN0cm9rZTojMTgxODE4O3N0cm9rZS13aWR0aDoxLjA7Ii8+PHBvbHlnb24gZmlsbD0iIzE4MTgxOCIgcG9pbnRzPSI0NjguNzYsNTI1LjY0LDQ3Ny4xNDE2LDUyMC40NjgxLDQ3MS41ODIsNTIxLjUxMjUsNDcwLjUzNzcsNTE1Ljk1MjksNDY4Ljc2LDUyNS42NCIgc3R5bGU9InN0cm9rZTojMTgxODE4O3N0cm9rZS13aWR0aDoxLjA7Ii8+PC9nPjwhLS1saW5rIFNlcnZpZG9yIGRlIFJlbGF0P3Jpb3MgdG8gTWVkYWxoYXMtLT48ZyBpZD0ibGlua19TZXJ2aWRvciBkZSBSZWxhdCYjMjQzO3Jpb3NfTWVkYWxoYXMiPjxwYXRoIGQ9Ik0zMS43MjIxLDQwNy4yODc0IEMzMS45MDM2LDQwNy42ODQyIDMyLjA4OTIsNDA4LjA3OSAzMi4yNzkxLDQwOC40NzE1IEMzMi42NTg4LDQwOS4yNTY1IDMzLjA1NTUsNDEwLjAzMjUgMzMuNDY5OCw0MTAuNzk3NyBDMzQuMjk4Niw0MTIuMzI4MSAzNS4xOTgxLDQxMy44MTUgMzYuMTc0NCw0MTUuMjQzOCBDMzguMTI2OSw0MTguMTAxNCA0MC4zODYzLDQyMC43MjYzIDQzLDQyMyBDOTEuMjQsNDY0Ljk2IDEyMS4zOCw0MzkuNyAxODUsNDQ2IEMyMDkuMDEsNDQ4LjM4IDM4MS40Myw0NDEuMzkgNDAyLDQ1NCBDNDI3LjgxLDQ2OS44MyA0NDAuMDgzLDQ5Ny42NiA0NDYuODczLDUxOS45NyAiIGZpbGw9Im5vbmUiIGlkPSJTZXJ2aWRvciBkZSBSZWxhdCYjMjQzO3Jpb3MtdG8tTWVkYWxoYXMiIHN0eWxlPSJzdHJva2U6IzE4MTgxODtzdHJva2Utd2lkdGg6MS4wOyIvPjxwb2x5Z29uIGZpbGw9IiMxODE4MTgiIHBvaW50cz0iNDQ4LjYyLDUyNS43MSw0NDkuODI2Miw1MTUuOTM1Myw0NDcuMTY0Miw1MjAuOTI2Niw0NDIuMTcyOCw1MTguMjY0Niw0NDguNjIsNTI1LjcxIiBzdHlsZT0ic3Ryb2tlOiMxODE4MTg7c3Ryb2tlLXdpZHRoOjEuMDsiLz48dGV4dCBmaWxsPSIjMDAwMDAwIiBmb250LWZhbWlseT0ic2Fucy1zZXJpZiIgZm9udC1zaXplPSIxMyIgbGVuZ3RoQWRqdXN0PSJzcGFjaW5nIiB0ZXh0TGVuZ3RoPSIxNDQiIHg9IjE4NiIgeT0iNDQ0LjI4OTEiPkdlcmEmIzIzMTsmIzIyNztvIGRlIFJlbGF0JiMyNDM7cmlvczwvdGV4dD48L2c+PCEtLVNSQz1bVkw3QklXQ241RHRkQW94VHBtLXU0N24wNEhJWEhMcDhCNndKMm1SSmYySGZEd0tWOG94eTBGNEJ2aVRDY2ZjUTZNX1Q5UmRkZDdqb1pkTUFPQk9hbHpGQVVOWWNyR3BzMGszYlFjRXFuRXdwLXQzdjVQUnBuck9TWEIxWkdoZktvOXdSaTcyRHllc2lRZzVmQmVTTkFycWN0QTlvdUlZY0NFOEFHblJ5MC1ZclJqbndHcjRkLU16QWZFbWk2ZWZPcGxURWVZeDcxT01qWUtLd05IejhlTmQ1U0NScVdXcDZ4aWxocXdCaU80dy1fXzhPS2VheVhNdHRkanc2Y0RIUU1uc1lKdWp6UFVfOE80RWkwb2FIMkl1bXRja1JIS1NoMnZuVFQ5N19HclBnWDU2QU9sM3VCX1ZFMWtiZkhxc2duc0FPSTcyVTlyS25ZNURycDZvZWFYZExySkJadHdoNXNUbWNvOThEc19LRl0tLT48L2c+PC9zdmc+;" vertex="1" parent="1">
            <mxGeometry x="-240" y="-20" width="1115" height="644" as="geometry" />
          </mxCell>
        </UserObject>
      </root>
    </mxGraphModel>
  </diagram>
</mxfile>
